<?xml version="1.0" encoding="UTF-8"?>
<svg version="1.1" xmlns="http://www.w3.org/2000/svg" width="430" height="369">
<path d="M0 0 C17.61129352 -0.04675311 35.22256762 -0.08200507 52.83390903 -0.10362434 C61.01144551 -0.11393005 69.18894338 -0.1279769 77.36645508 -0.15087891 C84.49526986 -0.17083438 91.62405669 -0.18372157 98.75289863 -0.18817699 C102.52638234 -0.19078072 106.29978606 -0.1968859 110.07324409 -0.21146011 C113.6280757 -0.22507813 117.1827947 -0.22921414 120.73764992 -0.22621536 C122.65788843 -0.22702422 124.5781148 -0.23776374 126.49832153 -0.24884033 C132.38600409 -0.23481268 137.45413201 -0.04758321 143 2 C143 1.34 143 0.68 143 0 C145.31 0 147.62 0 150 0 C150 0.66 150 1.32 150 2 C151.65 2.33 153.3 2.66 155 3 C154.42415568 5.38564077 153.77772405 7.66682784 153 10 C152.34 10 151.68 10 151 10 C150.34 11.98 149.68 13.96 149 16 C148.01 16 147.02 16 146 16 C146 17.65 146 19.3 146 21 C145.34 21 144.68 21 144 21 C143.855625 21.61875 143.71125 22.2375 143.5625 22.875 C143 25 143 25 142 27 C141.34 27 140.68 27 140 27 C139.814375 28.11375 139.814375 28.11375 139.625 29.25 C139.04513299 31.80141485 138.26291261 33.7267573 137 36 C136.34 36 135.68 36 135 36 C135 37.32 135 38.64 135 40 C134.34 40 133.68 40 133 40 C133 40.99 133 41.98 133 43 C132.34 43 131.68 43 131 43 C131 44.32 131 45.64 131 47 C130.34 47 129.68 47 129 47 C128.8453125 48.1446875 128.8453125 48.1446875 128.6875 49.3125 C127.93772808 52.24342658 127.16526733 53.01517162 125 55 C124.67 55.99 124.34 56.98 124 58 C123.34 58 122.68 58 122 58 C121.34 60.97 120.68 63.94 120 67 C119.34 67 118.68 67 118 67 C117.7834375 67.8971875 117.7834375 67.8971875 117.5625 68.8125 C116.27586207 73.81609195 116.27586207 73.81609195 113 76 C111.68 76 110.36 76 109 76 C109 76.66 109 77.32 109 78 C96.79 78 84.58 78 72 78 C72 77.34 72 76.68 72 76 C70.68 75.67 69.36 75.34 68 75 C68 73.68 68 72.36 68 71 C68.66 71 69.32 71 70 71 C70 69.68 70 68.36 70 67 C70.66 67 71.32 67 72 67 C72 65.68 72 64.36 72 63 C72.66 63 73.32 63 74 63 C74 62.01 74 61.02 74 60 C74.66 60 75.32 60 76 60 C76 58.35 76 56.7 76 55 C76.99 54.67 77.98 54.34 79 54 C79 53.01 79 52.02 79 51 C79.66 51 80.32 51 81 51 C81.144375 50.38125 81.28875 49.7625 81.4375 49.125 C82 47 82 47 83 45 C83.66 45 84.32 45 85 45 C84.67 43.68 84.34 42.36 84 41 C76.26333281 40.97680183 68.52666924 40.95904682 60.78997517 40.94818783 C57.19729189 40.94297535 53.60463245 40.93590743 50.01196289 40.92456055 C46.54307509 40.91367351 43.07421019 40.90771084 39.60530663 40.90512276 C37.64167398 40.90238336 35.67805052 40.89458056 33.71443176 40.88670349 C32.5135643 40.88662796 31.31269684 40.88655243 30.07543945 40.88647461 C29.02064896 40.884254 27.96585846 40.88203339 26.87910461 40.87974548 C24.14352713 40.99400515 21.66237066 41.38107618 19 42 C19 42.99 19 43.98 19 45 C18.34 45 17.68 45 17 45 C17 46.32 17 47.64 17 49 C16.34 49 15.68 49 15 49 C15 49.99 15 50.98 15 52 C14.34 52 13.68 52 13 52 C13.04125 52.7425 13.0825 53.485 13.125 54.25 C12.99601866 57.08758952 12.42948778 58.58773938 11 61 C10.34 61 9.68 61 9 61 C8.67 62.32 8.34 63.64 8 65 C7.34 65 6.68 65 6 65 C6 66.32 6 67.64 6 69 C5.34 69 4.68 69 4 69 C4 69.99 4 70.98 4 72 C3.34 72 2.68 72 2 72 C2 73.32 2 74.64 2 76 C1.34 76 0.68 76 0 76 C-0.144375 76.7425 -0.28875 77.485 -0.4375 78.25 C-0.90187492 80.52027739 -1.41863569 82.75759479 -2 85 C-2.99 85 -3.98 85 -5 85 C-5 86.32 -5 87.64 -5 89 C-5.66 89 -6.32 89 -7 89 C-7 89.99 -7 90.98 -7 92 C-7.66 92 -8.32 92 -9 92 C-9 93.32 -9 94.64 -9 96 C-9.66 96 -10.32 96 -11 96 C-11 97.32 -11 98.64 -11 100 C-10.4443187 99.99907821 -9.88863741 99.99815641 -9.31611729 99.99720669 C4.1867655 99.97515018 17.68964515 99.95865159 31.19254208 99.94818783 C37.72236233 99.9429583 44.25216963 99.93585939 50.78198242 99.92456055 C57.07781159 99.91373415 63.37362826 99.90772369 69.66946602 99.90512276 C72.07734944 99.90326806 74.48523214 99.8996466 76.89311028 99.89426994 C80.25289286 99.8870628 83.6126231 99.88600892 86.97241211 99.88647461 C87.97869659 99.88287933 88.98498108 99.87928406 90.02175903 99.87557983 C91.38691399 99.87764183 91.38691399 99.87764183 92.77964783 99.87974548 C93.97290884 99.87836279 93.97290884 99.87836279 95.19027615 99.87695217 C97 100 97 100 98 101 C98.29356154 104.62059232 97.85064319 106.87703962 96 110 C95.34 110 94.68 110 94 110 C94 110.66 94 111.32 94 112 C93.34 112 92.68 112 92 112 C92 113.32 92 114.64 92 116 C91.01 116 90.02 116 89 116 C89 116.99 89 117.98 89 119 C88.34 119 87.68 119 87 119 C87 120.32 87 121.64 87 123 C86.34 123 85.68 123 85 123 C85 124.65 85 126.3 85 128 C84.34 128 83.68 128 83 128 C82.9175 128.61875 82.835 129.2375 82.75 129.875 C82 132 82 132 80.24181747 133.11778069 C77.77540176 134.08838583 76.02384118 134.24659871 73.38092041 134.24050903 C71.99695824 134.24463303 71.99695824 134.24463303 70.58503723 134.24884033 C69.58018784 134.24164978 68.57533844 134.23445923 67.54003906 134.22705078 C66.47631577 134.22734283 65.41259247 134.22763489 64.31663513 134.22793579 C60.79954887 134.2265421 57.28267427 134.21097882 53.765625 134.1953125 C51.32753617 134.19158252 48.88944584 134.18873547 46.45135498 134.18673706 C40.03322209 134.17909948 33.61517966 134.15944982 27.19708252 134.1373291 C20.64832788 134.11687342 14.09955863 134.10773593 7.55078125 134.09765625 C-5.29951777 134.07620414 -18.14975407 134.04245085 -31 134 C-31 134.66 -31 135.32 -31 136 C-31.66 136 -32.32 136 -33 136 C-33 136.66 -33 137.32 -33 138 C-33.66 138 -34.32 138 -35 138 C-35.12375 138.7425 -35.2475 139.485 -35.375 140.25 C-35.95486701 142.80141485 -36.73708739 144.7267573 -38 147 C-38.66 147 -39.32 147 -40 147 C-40 147.99 -40 148.98 -40 150 C-40.66 150 -41.32 150 -42 150 C-42 151.32 -42 152.64 -42 154 C-42.66 154 -43.32 154 -44 154 C-44.144375 154.598125 -44.28875 155.19625 -44.4375 155.8125 C-44.8872439 157.56150404 -45.42892341 159.28677023 -46 161 C-46.66 161 -47.32 161 -48 161 C-48 162.32 -48 163.64 -48 165 C-48.99 165 -49.98 165 -51 165 C-51 168.63 -51 172.26 -51 176 C-50.01 176 -49.02 176 -48 176 C-48 176.99 -48 177.98 -48 179 C-47.34 179 -46.68 179 -46 179 C-46 180.32 -46 181.64 -46 183 C-45.34 183 -44.68 183 -44 183 C-44 184.32 -44 185.64 -44 187 C-43.34 187 -42.68 187 -42 187 C-42 187.99 -42 188.98 -42 190 C-41.34 190 -40.68 190 -40 190 C-40 191.32 -40 192.64 -40 194 C-39.01 194.33 -38.02 194.66 -37 195 C-37 195.99 -37 196.98 -37 198 C-36.34 198 -35.68 198 -35 198 C-33.23537317 201.08809695 -33 202.23312136 -33 206 C-32.34 206 -31.68 206 -31 206 C-31 207.32 -31 208.64 -31 210 C-30.34 210 -29.68 210 -29 210 C-29 210.66 -29 211.32 -29 212 C-28.34 212 -27.68 212 -27 212 C-24.56839395 215.36683915 -24 216.73350364 -24 221 C-23.34 221 -22.68 221 -22 221 C-22 222.32 -22 223.64 -22 225 C-20.68 225 -19.36 225 -18 225 C-18 224.34 -18 223.68 -18 223 C-17.34 223 -16.68 223 -16 223 C-15.87625 222.2575 -15.7525 221.515 -15.625 220.75 C-15.04513299 218.19858515 -14.26291261 216.2732427 -13 214 C-12.34 214 -11.68 214 -11 214 C-11 212.68 -11 211.36 -11 210 C-10.34 210 -9.68 210 -9 210 C-8.86335938 209.42636719 -8.72671875 208.85273438 -8.5859375 208.26171875 C-8.01813575 206.070004 -7.370878 203.94988158 -6.625 201.8125 C-6.39039063 201.11769531 -6.15578125 200.42289063 -5.9140625 199.70703125 C-5 198 -5 198 -2 197 C-2 196.01 -2 195.02 -2 194 C-1.34 194 -0.68 194 0 194 C0 192.68 0 191.36 0 190 C0.66 190 1.32 190 2 190 C2 189.01 2 188.02 2 187 C2.66 187 3.32 187 4 187 C4 185.68 4 184.36 4 183 C4.66 183 5.32 183 6 183 C6.33 181.35 6.66 179.7 7 178 C7.66 178 8.32 178 9 178 C9 176.68 9 175.36 9 174 C9.66 174 10.32 174 11 174 C11 172.68 11 171.36 11 170 C11.66 170 12.32 170 13 170 C13 169.01 13 168.02 13 167 C13.66 167 14.32 167 15 167 C15 165.68 15 164.36 15 163 C15.66 163 16.32 163 17 163 C17 161.68 17 160.36 17 159 C17.66 159 18.32 159 19 159 C19.33 158.01 19.66 157.02 20 156 C20.66 156 21.32 156 22 156 C22 155.34 22 154.68 22 154 C36.19 154 50.38 154 65 154 C65 156.97 65 159.94 65 163 C64.34 163 63.68 163 63 163 C63 163.99 63 164.98 63 166 C62.34 166 61.68 166 61 166 C61 167.32 61 168.64 61 170 C60.34 170 59.68 170 59 170 C59 171.32 59 172.64 59 174 C58.34 174 57.68 174 57 174 C57 174.99 57 175.98 57 177 C56.01 177 55.02 177 54 177 C54 178.32 54 179.64 54 181 C53.34 181 52.68 181 52 181 C52 182.32 52 183.64 52 185 C51.34 185 50.68 185 50 185 C50 185.99 50 186.98 50 188 C49.34 188 48.68 188 48 188 C48 189.32 48 190.64 48 192 C47.34 192 46.68 192 46 192 C45.896875 192.556875 45.79375 193.11375 45.6875 193.6875 C44.86913147 196.44019415 43.47401082 198.5433153 42 201 C41.30420546 203.19130534 41.30420546 203.19130534 41 205 C40.34 205 39.68 205 39 205 C39 205.99 39 206.98 39 208 C38.34 208 37.68 208 37 208 C37 209.32 37 210.64 37 212 C36.34 212 35.68 212 35 212 C35 212.99 35 213.98 35 215 C34.34 215 33.68 215 33 215 C33 216.32 33 217.64 33 219 C32.01 219 31.02 219 30 219 C30 220.32 30 221.64 30 223 C29.34 223 28.68 223 28 223 C28 223.99 28 224.98 28 226 C27.34 226 26.68 226 26 226 C26 227.32 26 228.64 26 230 C25.34 230 24.68 230 24 230 C23.87625 230.7425 23.7525 231.485 23.625 232.25 C23.04513299 234.80141485 22.26291261 236.7267573 21 239 C20.34 239 19.68 239 19 239 C18.71125 239.886875 18.4225 240.77375 18.125 241.6875 C17.16851252 244.50382424 16.13201054 247.25083156 15 250 C14.34 250 13.68 250 13 250 C12.855625 250.598125 12.71125 251.19625 12.5625 251.8125 C12.1127561 253.56150404 11.57107659 255.28677023 11 257 C10.34 257 9.68 257 9 257 C8.67 258.32 8.34 259.64 8 261 C7.34 261 6.68 261 6 261 C5.855625 261.7425 5.71125 262.485 5.5625 263.25 C5.09812508 265.52027739 4.58136431 267.75759479 4 270 C3.34 270 2.68 270 2 270 C1.731875 270.886875 1.46375 271.77375 1.1875 272.6875 C0.0749365 275.7909666 -1.10195778 278.31110685 -3 281 C-3.66 281 -4.32 281 -5 281 C-5 281.99 -5 282.98 -5 284 C-5.66 284 -6.32 284 -7 284 C-7 285.32 -7 286.64 -7 288 C-7.66 288 -8.32 288 -9 288 C-9 289.65 -9 291.3 -9 293 C-9.66 293 -10.32 293 -11 293 C-11 294.32 -11 295.64 -11 297 C-11.66 297 -12.32 297 -13 297 C-13 298.32 -13 299.64 -13 301 C-13.99 301 -14.98 301 -16 301 C-16 301.99 -16 302.98 -16 304 C-16.66 304 -17.32 304 -18 304 C-18 304.66 -18 305.32 -18 306 C-20.64 306 -23.28 306 -26 306 C-26 304.68 -26 303.36 -26 302 C-26.99 302 -27.98 302 -29 302 C-29 300.35 -29 298.7 -29 297 C-29.66 297 -30.32 297 -31 297 C-31 295.68 -31 294.36 -31 293 C-31.66 293 -32.32 293 -33 293 C-33 292.01 -33 291.02 -33 290 C-33.66 290 -34.32 290 -35 290 C-35 288.68 -35 287.36 -35 286 C-35.66 286 -36.32 286 -37 286 C-37 284.68 -37 283.36 -37 282 C-37.99 281.67 -38.98 281.34 -40 281 C-40 279.68 -40 278.36 -40 277 C-40.66 277 -41.32 277 -42 277 C-43.4606285 274.35261084 -44 273.10551666 -44 270 C-44.66 270 -45.32 270 -46 270 C-46 268.68 -46 267.36 -46 266 C-46.66 266 -47.32 266 -48 266 C-48 265.01 -48 264.02 -48 263 C-48.66 263 -49.32 263 -50 263 C-52.04169485 260.09451118 -53 258.59857954 -53 255 C-53.66 255 -54.32 255 -55 255 C-55 254.01 -55 253.02 -55 252 C-55.66 252 -56.32 252 -57 252 C-57 250.68 -57 249.36 -57 248 C-57.66 248 -58.32 248 -59 248 C-59 246.68 -59 245.36 -59 244 C-59.66 244 -60.32 244 -61 244 C-61 243.01 -61 242.02 -61 241 C-61.99 240.67 -62.98 240.34 -64 240 C-64 239.01 -64 238.02 -64 237 C-64.66 237 -65.32 237 -66 237 C-66 235.35 -66 233.7 -66 232 C-66.66 232 -67.32 232 -68 232 C-68 230.68 -68 229.36 -68 228 C-68.66 228 -69.32 228 -70 228 C-70 227.01 -70 226.02 -70 225 C-70.66 225 -71.32 225 -72 225 C-72 223.68 -72 222.36 -72 221 C-72.99 221 -73.98 221 -75 221 C-75 219.68 -75 218.36 -75 217 C-75.66 217 -76.32 217 -77 217 C-77 216.01 -77 215.02 -77 214 C-77.66 214 -78.32 214 -79 214 C-79 212.68 -79 211.36 -79 210 C-79.66 210 -80.32 210 -81 210 C-81 208.68 -81 207.36 -81 206 C-81.66 206 -82.32 206 -83 206 C-84.23921302 203.02588876 -85.30058404 200.14737182 -86 197 C-86.66 197 -87.32 197 -88 197 C-89.4606285 194.35261084 -90 193.10551666 -90 190 C-90.66 190 -91.32 190 -92 190 C-92 188.68 -92 187.36 -92 186 C-92.66 186 -93.32 186 -94 186 C-94 185.01 -94 184.02 -94 183 C-94.66 183 -95.32 183 -96 183 C-96 181.68 -96 180.36 -96 179 C-96.99 179 -97.98 179 -99 179 C-99 175.04 -99 171.08 -99 167 C-98.01 167 -97.02 167 -96 167 C-96 165.68 -96 164.36 -96 163 C-95.34 163 -94.68 163 -94 163 C-94 161.68 -94 160.36 -94 159 C-93.34 159 -92.68 159 -92 159 C-92 158.01 -92 157.02 -92 156 C-91.34 156 -90.68 156 -90 156 C-90 154.68 -90 153.36 -90 152 C-89.34 152 -88.68 152 -88 152 C-88 151.01 -88 150.02 -88 149 C-87.34 149 -86.68 149 -86 149 C-85.505 147.02 -85.505 147.02 -85 145 C-84.34 145 -83.68 145 -83 145 C-83 143.35 -83 141.7 -83 140 C-82.34 140 -81.68 140 -81 140 C-81 138.68 -81 137.36 -81 136 C-80.34 136 -79.68 136 -79 136 C-78.855625 135.401875 -78.71125 134.80375 -78.5625 134.1875 C-78.1127561 132.43849596 -77.57107659 130.71322977 -77 129 C-76.34 129 -75.68 129 -75 129 C-75 127.68 -75 126.36 -75 125 C-74.01 125 -73.02 125 -72 125 C-72 123.68 -72 122.36 -72 121 C-71.34 121 -70.68 121 -70 121 C-70 120.01 -70 119.02 -70 118 C-69.34 118 -68.68 118 -68 118 C-68 116.68 -68 115.36 -68 114 C-67.34 114 -66.68 114 -66 114 C-65.87625 113.2575 -65.7525 112.515 -65.625 111.75 C-65.04513299 109.19858515 -64.26291261 107.2732427 -63 105 C-62.34 105 -61.68 105 -61 105 C-61 103.68 -61 102.36 -61 101 C-60.34 101 -59.68 101 -59 101 C-59 100.01 -59 99.02 -59 98 C-58.34 98 -57.68 98 -57 98 C-57 96.68 -57 95.36 -57 94 C-56.34 94 -55.68 94 -55 94 C-54.855625 93.401875 -54.71125 92.80375 -54.5625 92.1875 C-54.1127561 90.43849596 -53.57107659 88.71322977 -53 87 C-52.34 87 -51.68 87 -51 87 C-50.87625 86.443125 -50.7525 85.88625 -50.625 85.3125 C-49.94023145 82.77885636 -49.00866237 80.42078968 -48 78 C-47.34 78 -46.68 78 -46 78 C-45.855625 77.401875 -45.71125 76.80375 -45.5625 76.1875 C-45.1127561 74.43849596 -44.57107659 72.71322977 -44 71 C-43.34 71 -42.68 71 -42 71 C-42 69.68 -42 68.36 -42 67 C-41.34 67 -40.68 67 -40 67 C-39.505 65.02 -39.505 65.02 -39 63 C-38.34 63 -37.68 63 -37 63 C-37 62.01 -37 61.02 -37 60 C-36.34 60 -35.68 60 -35 60 C-35 58.68 -35 57.36 -35 56 C-34.34 56 -33.68 56 -33 56 C-33 54.68 -33 53.36 -33 52 C-32.34 52 -31.68 52 -31 52 C-30.87625 51.443125 -30.7525 50.88625 -30.625 50.3125 C-29.94023145 47.77885636 -29.00866237 45.42078968 -28 43 C-27.34 43 -26.68 43 -26 43 C-26 42.01 -26 41.02 -26 40 C-25.34 40 -24.68 40 -24 40 C-24 38.68 -24 37.36 -24 36 C-23.34 36 -22.68 36 -22 36 C-21.855625 35.401875 -21.71125 34.80375 -21.5625 34.1875 C-21.1127561 32.43849596 -20.57107659 30.71322977 -20 29 C-19.34 29 -18.68 29 -18 29 C-18 27.68 -18 26.36 -18 25 C-17.34 25 -16.68 25 -16 25 C-16 24.01 -16 23.02 -16 22 C-15.01 22 -14.02 22 -13 22 C-13 20.02 -13 18.04 -13 16 C-12.34 16 -11.68 16 -11 16 C-11 15.01 -11 14.02 -11 13 C-10.34 13 -9.68 13 -9 13 C-9 11.68 -9 10.36 -9 9 C-8.34 9 -7.68 9 -7 9 C-7 7.68 -7 6.36 -7 5 C-6.34 5 -5.68 5 -5 5 C-5 4.01 -5 3.02 -5 2 C-3.35 2 -1.7 2 0 2 C0 1.34 0 0.68 0 0 Z " fill="#050200" transform="translate(237,63)"/>
<path d="M0 0 C2.33294775 -0.04241723 4.66702567 -0.04092937 7 0 C7.33 0.33 7.66 0.66 8 1 C10.10915862 1.09887534 12.22169978 1.12555726 14.33317471 1.12584114 C15.00570208 1.12729458 15.67822946 1.12874802 16.37113646 1.13024551 C18.65291814 1.1339312 20.93463408 1.13040729 23.21641541 1.12698364 C24.85752397 1.12813445 26.49863228 1.1297217 28.13974005 1.13171089 C32.67145277 1.1359098 37.20314461 1.133811 41.73485744 1.13072467 C46.6135891 1.12847304 51.49231704 1.131949 56.37104797 1.13470459 C65.9374815 1.13916394 75.5039072 1.13818506 85.07034104 1.13529195 C92.84204099 1.13303843 100.61373874 1.13272517 108.38543892 1.13381577 C109.48931976 1.133969 110.59320059 1.13412223 111.73053237 1.13428011 C113.97268537 1.13459982 116.21483838 1.13492403 118.45699138 1.1352527 C139.50902286 1.13810801 160.56104999 1.13481974 181.61308075 1.12945233 C199.69542515 1.12498487 217.77776313 1.12575966 235.86010742 1.13037109 C256.83253175 1.13571703 277.80495227 1.13783266 298.77737719 1.13475883 C301.01183323 1.13444026 303.24628927 1.13412589 305.48074532 1.13381577 C307.13005453 1.13358435 307.13005453 1.13358435 308.81268312 1.13334826 C316.57883229 1.13248312 324.34497905 1.13394594 332.11112785 1.13629532 C341.57011744 1.13909376 351.02909872 1.13835415 360.48808735 1.13301457 C365.31860733 1.13037806 370.14911344 1.12937165 374.97963333 1.13266373 C379.39543367 1.13562774 383.81120719 1.13403208 388.22700507 1.12868617 C389.83063381 1.12756244 391.43426478 1.12815222 393.0378921 1.13056196 C395.20562237 1.13357129 397.37325891 1.13051584 399.54098415 1.12584114 C400.74871217 1.12567879 401.95644019 1.12551644 403.20076603 1.12534916 C405.95460157 1.19217992 405.95460157 1.19217992 408 0 C416.39097744 -0.40601504 416.39097744 -0.40601504 420 2 C420 3.65 420 5.3 420 7 C419.34 7 418.68 7 418 7 C418 8.32 418 9.64 418 11 C417.34 11 416.68 11 416 11 C415.87625 11.598125 415.7525 12.19625 415.625 12.8125 C415 15 415 15 413 18 C412.34 18 411.68 18 411 18 C411 19.32 411 20.64 411 22 C410.34 22 409.68 22 409 22 C409 22.99 409 23.98 409 25 C408.34 25 407.68 25 407 25 C407 26.32 407 27.64 407 29 C406.34 29 405.68 29 405 29 C405 30.32 405 31.64 405 33 C404.34 33 403.68 33 403 33 C402.67 34.65 402.34 36.3 402 38 C401.34 38 400.68 38 400 38 C400 38.66 400 39.32 400 40 C399.34 40 398.68 40 398 40 C398 40.66 398 41.32 398 42 C397.34 42 396.68 42 396 42 C396 42.66 396 43.32 396 44 C395.02263445 44.00331015 394.0452689 44.00662029 393.03828621 44.01003075 C369.28708972 44.09092567 345.53595847 44.18321049 321.78485298 44.28752708 C310.29912786 44.3377079 298.81341007 44.38415008 287.32763672 44.421875 C277.31986471 44.45475483 267.31214873 44.49456363 257.30443847 44.54279006 C252.00252313 44.56809504 246.70064515 44.58986439 241.39868546 44.60334396 C236.41322083 44.61612817 231.42788407 44.63814278 226.44248962 44.66738319 C224.60825351 44.67648758 222.77399678 44.68215582 220.93973923 44.68421364 C218.44422705 44.68751609 215.94908187 44.702938 213.4536438 44.7215271 C212.72018931 44.71959237 211.98673481 44.71765763 211.23105443 44.71566427 C207.16551866 44.64388091 207.16551866 44.64388091 204 47 C203.01 47 202.02 47 201 47 C201.04125 47.7425 201.0825 48.485 201.125 49.25 C200.99601866 52.08758952 200.42948778 53.58773938 199 56 C198.34 56 197.68 56 197 56 C197 57.32 197 58.64 197 60 C196.34 60 195.68 60 195 60 C195 61.32 195 62.64 195 64 C194.34 64 193.68 64 193 64 C193 64.99 193 65.98 193 67 C192.01 67.495 192.01 67.495 191 68 C190.67 68.99 190.34 69.98 190 71 C189.34 71 188.68 71 188 71 C188 72.32 188 73.64 188 75 C187.34 75 186.68 75 186 75 C186 76.65 186 78.3 186 80 C185.34 80 184.68 80 184 80 C183.7834375 80.8971875 183.7834375 80.8971875 183.5625 81.8125 C183.1127561 83.56150404 182.57107659 85.28677023 182 87 C181.01 87 180.02 87 179 87 C179 88.32 179 89.64 179 91 C178.34 91 177.68 91 177 91 C177 91.99 177 92.98 177 94 C176.34 94 175.68 94 175 94 C175 95.32 175 96.64 175 98 C174.34 98 173.68 98 173 98 C173 99.32 173 100.64 173 102 C172.34 102 171.68 102 171 102 C170.87625 102.7425 170.7525 103.485 170.625 104.25 C170.04513299 106.80141485 169.26291261 108.7267573 168 111 C167.34 111 166.68 111 166 111 C166 111.99 166 112.98 166 114 C165.34 114 164.68 114 164 114 C164 115.32 164 116.64 164 118 C163.34 118 162.68 118 162 118 C162 119.32 162 120.64 162 122 C161.34 122 160.68 122 160 122 C160 122.99 160 123.98 160 125 C159.34 125 158.68 125 158 125 C158 126.32 158 127.64 158 129 C157.01 129 156.02 129 155 129 C155 130.32 155 131.64 155 133 C154.34 133 153.68 133 153 133 C153 134.65 153 136.3 153 138 C152.34 138 151.68 138 151 138 C150.855625 138.598125 150.71125 139.19625 150.5625 139.8125 C150.1127561 141.56150404 149.57107659 143.28677023 149 145 C148.34 145 147.68 145 147 145 C147 146.32 147 147.64 147 149 C146.01 149 145.02 149 144 149 C144 149.99 144 150.98 144 152 C143.34 152 142.68 152 142 152 C142 153.32 142 154.64 142 156 C141.34 156 140.68 156 140 156 C140 157.32 140 158.64 140 160 C139.34 160 138.68 160 138 160 C138 160.99 138 161.98 138 163 C137.34 163 136.68 163 136 163 C136 164.32 136 165.64 136 167 C135.34 167 134.68 167 134 167 C133.67 168.32 133.34 169.64 133 171 C132.34 171 131.68 171 131 171 C131 172.65 131 174.3 131 176 C130.34 176 129.68 176 129 176 C128.855625 176.598125 128.71125 177.19625 128.5625 177.8125 C128.1127561 179.56150404 127.57107659 181.28677023 127 183 C126.34 183 125.68 183 125 183 C125 184.32 125 185.64 125 187 C124.34 187 123.68 187 123 187 C122.67 188.65 122.34 190.3 122 192 C121.34 192 120.68 192 120 192 C120 193.32 120 194.64 120 196 C119.34 196 118.68 196 118 196 C118 197.32 118 198.64 118 200 C116.8125 201.75 116.8125 201.75 115 203 C112.3125 203.1875 112.3125 203.1875 110 203 C110 202.34 110 201.68 110 201 C109.01 201 108.02 201 107 201 C107 199.35 107 197.7 107 196 C106.34 196 105.68 196 105 196 C105 194.68 105 193.36 105 192 C104.34 192 103.68 192 103 192 C103 190.68 103 189.36 103 188 C102.34 188 101.68 188 101 188 C101 186.68 101 185.36 101 184 C100.34 184 99.68 184 99 184 C99 182.68 99 181.36 99 180 C98.01 180 97.02 180 96 180 C96 178.68 96 177.36 96 176 C95.34 176 94.68 176 94 176 C92.5625 173.8125 92.5625 173.8125 91 171 C90.443125 170.236875 89.88625 169.47375 89.3125 168.6875 C87.48397832 164.94338418 87.7895182 162.13947541 88 158 C88.66 158 89.32 158 90 158 C90 156.68 90 155.36 90 154 C90.66 154 91.32 154 92 154 C92 153.01 92 152.02 92 151 C92.66 151 93.32 151 94 151 C94 149.68 94 148.36 94 147 C94.66 147 95.32 147 96 147 C96.33 145.68 96.66 144.36 97 143 C97.66 143 98.32 143 99 143 C99 142.01 99 141.02 99 140 C99.66 140 100.32 140 101 140 C100.95875 139.2575 100.9175 138.515 100.875 137.75 C101.00398134 134.91241048 101.57051222 133.41226062 103 131 C103.66 131 104.32 131 105 131 C105 129.68 105 128.36 105 127 C105.66 127 106.32 127 107 127 C107 126.01 107 125.02 107 124 C107.66 124 108.32 124 109 124 C109.495 122.02 109.495 122.02 110 120 C110.66 120 111.32 120 112 120 C112.144375 119.21625 112.28875 118.4325 112.4375 117.625 C113 115 113 115 114 113 C114.66 113 115.32 113 116 113 C116 111.68 116 110.36 116 109 C116.66 109 117.32 109 118 109 C118 107.35 118 105.7 118 104 C118.66 104 119.32 104 120 104 C120 102.68 120 101.36 120 100 C120.99 100 121.98 100 123 100 C123 98.68 123 97.36 123 96 C123.66 96 124.32 96 125 96 C125 95.01 125 94.02 125 93 C125.66 93 126.32 93 127 93 C127 91.68 127 90.36 127 89 C127.66 89 128.32 89 129 89 C129 87.35 129 85.7 129 84 C129.66 84 130.32 84 131 84 C131.33 82.68 131.66 81.36 132 80 C132.66 80 133.32 80 134 80 C134.2165625 79.1028125 134.2165625 79.1028125 134.4375 78.1875 C134.8872439 76.43849596 135.42892341 74.71322977 136 73 C136.66 73 137.32 73 138 73 C138 71.68 138 70.36 138 69 C138.66 69 139.32 69 140 69 C140 68.01 140 67.02 140 66 C140.66 66 141.32 66 142 66 C142 64.68 142 63.36 142 62 C142.66 62 143.32 62 144 62 C144.185625 60.88625 144.185625 60.88625 144.375 59.75 C144.95486701 57.19858515 145.73708739 55.2732427 147 53 C147.66 53 148.32 53 149 53 C149 52.34 149 51.68 149 51 C149.66 51 150.32 51 151 51 C151 49.68 151 48.36 151 47 C151.66 47 152.32 47 153 47 C153 46.34 153 45.68 153 45 C121.98 45 90.96 45 59 45 C58.34 46.32 57.68 47.64 57 49 C56.34 49 55.68 49 55 49 C55.061875 49.845625 55.12375 50.69125 55.1875 51.5625 C54.95984372 55.73619843 53.79792186 58.25432947 52 62 C51.34 62 50.68 62 50 62 C50 63.65 50 65.3 50 67 C49.34 67 48.68 67 48 67 C48.04125 67.886875 48.0825 68.77375 48.125 69.6875 C47.99712583 73.07616562 47.70378789 75.07922075 46 78 C43.625 79.4375 43.625 79.4375 41 80 C38.6875 79.125 38.6875 79.125 37 78 C37 76.68 37 75.36 37 74 C36.34 74 35.68 74 35 74 C35 72.35 35 70.7 35 69 C34.34 69 33.68 69 33 69 C33 67.68 33 66.36 33 65 C32.34 65 31.68 65 31 65 C31 64.01 31 63.02 31 62 C30.34 62 29.68 62 29 62 C29 60.68 29 59.36 29 58 C27.515 57.505 27.515 57.505 26 57 C26 56.01 26 55.02 26 54 C25.34 54 24.68 54 24 54 C24 52.35 24 50.7 24 49 C23.34 49 22.68 49 22 49 C20.5393715 46.35261084 20 45.10551666 20 42 C19.34 42 18.68 42 18 42 C18 40.68 18 39.36 18 38 C17.01 38 16.02 38 15 38 C15 37.01 15 36.02 15 35 C14.34 35 13.68 35 13 35 C13 33.68 13 32.36 13 31 C12.34 31 11.68 31 11 31 C11 29.68 11 28.36 11 27 C10.34 27 9.68 27 9 27 C9 26.01 9 25.02 9 24 C8.34 24 7.68 24 7 24 C7 22.68 7 21.36 7 20 C6.01 19.67 5.02 19.34 4 19 C4 18.01 4 17.02 4 16 C3.34 16 2.68 16 2 16 C2 15.01 2 14.02 2 13 C1.34 13 0.68 13 0 13 C0 11.68 0 10.36 0 9 C-0.66 9 -1.32 9 -2 9 C-2 6.69 -2 4.38 -2 2 C-1.34 2 -0.68 2 0 2 C0 1.34 0 0.68 0 0 Z " fill="#030100" transform="translate(7,1)"/>
<path d="M0 0 C0.99 0 1.98 0 3 0 C3 1.65 3 3.3 3 5 C2.34 5 1.68 5 1 5 C1 6.32 1 7.64 1 9 C0.34 9 -0.32 9 -1 9 C-1.12375 9.598125 -1.2475 10.19625 -1.375 10.8125 C-2 13 -2 13 -4 16 C-4.66 16 -5.32 16 -6 16 C-6 17.32 -6 18.64 -6 20 C-6.66 20 -7.32 20 -8 20 C-8 20.99 -8 21.98 -8 23 C-8.66 23 -9.32 23 -10 23 C-10 24.32 -10 25.64 -10 27 C-10.66 27 -11.32 27 -12 27 C-12 28.32 -12 29.64 -12 31 C-12.66 31 -13.32 31 -14 31 C-14.33 32.65 -14.66 34.3 -15 36 C-15.66 36 -16.32 36 -17 36 C-17 36.66 -17 37.32 -17 38 C-17.66 38 -18.32 38 -19 38 C-19 38.66 -19 39.32 -19 40 C-19.66 40 -20.32 40 -21 40 C-21 40.66 -21 41.32 -21 42 C-21.97736555 42.00331015 -22.9547311 42.00662029 -23.96171379 42.01003075 C-47.71291028 42.09092567 -71.46404153 42.18321049 -95.21514702 42.28752708 C-106.70087214 42.3377079 -118.18658993 42.38415008 -129.67236328 42.421875 C-139.68013529 42.45475483 -149.68785127 42.49456363 -159.69556153 42.54279006 C-164.99747687 42.56809504 -170.29935485 42.58986439 -175.60131454 42.60334396 C-180.58677917 42.61612817 -185.57211593 42.63814278 -190.55751038 42.66738319 C-192.39174649 42.67648758 -194.22600322 42.68215582 -196.06026077 42.68421364 C-198.55577295 42.68751609 -201.05091813 42.702938 -203.5463562 42.7215271 C-204.27981069 42.71959237 -205.01326519 42.71765763 -205.76894557 42.71566427 C-209.83448134 42.64388091 -209.83448134 42.64388091 -213 45 C-213.99 45 -214.98 45 -216 45 C-215.95875 45.7425 -215.9175 46.485 -215.875 47.25 C-216.00398134 50.08758952 -216.57051222 51.58773938 -218 54 C-218.66 54 -219.32 54 -220 54 C-220 55.32 -220 56.64 -220 58 C-220.66 58 -221.32 58 -222 58 C-222 59.32 -222 60.64 -222 62 C-222.66 62 -223.32 62 -224 62 C-224 62.99 -224 63.98 -224 65 C-224.99 65.495 -224.99 65.495 -226 66 C-226.495 67.485 -226.495 67.485 -227 69 C-227.66 69 -228.32 69 -229 69 C-229 70.32 -229 71.64 -229 73 C-229.66 73 -230.32 73 -231 73 C-231 74.65 -231 76.3 -231 78 C-231.66 78 -232.32 78 -233 78 C-233.2165625 78.8971875 -233.2165625 78.8971875 -233.4375 79.8125 C-233.8872439 81.56150404 -234.42892341 83.28677023 -235 85 C-235.99 85 -236.98 85 -238 85 C-238 86.32 -238 87.64 -238 89 C-238.66 89 -239.32 89 -240 89 C-240 89.99 -240 90.98 -240 92 C-240.66 92 -241.32 92 -242 92 C-242 93.32 -242 94.64 -242 96 C-242.66 96 -243.32 96 -244 96 C-244 97.32 -244 98.64 -244 100 C-244.66 100 -245.32 100 -246 100 C-246.12375 100.7425 -246.2475 101.485 -246.375 102.25 C-246.95486701 104.80141485 -247.73708739 106.7267573 -249 109 C-249.66 109 -250.32 109 -251 109 C-251 109.99 -251 110.98 -251 112 C-251.66 112 -252.32 112 -253 112 C-253 113.32 -253 114.64 -253 116 C-253.66 116 -254.32 116 -255 116 C-255 117.32 -255 118.64 -255 120 C-255.66 120 -256.32 120 -257 120 C-257 120.99 -257 121.98 -257 123 C-257.66 123 -258.32 123 -259 123 C-259 124.32 -259 125.64 -259 127 C-259.99 127 -260.98 127 -262 127 C-262 128.32 -262 129.64 -262 131 C-262.66 131 -263.32 131 -264 131 C-264 132.65 -264 134.3 -264 136 C-264.66 136 -265.32 136 -266 136 C-266.144375 136.598125 -266.28875 137.19625 -266.4375 137.8125 C-266.8872439 139.56150404 -267.42892341 141.28677023 -268 143 C-268.66 143 -269.32 143 -270 143 C-270 144.32 -270 145.64 -270 147 C-270.99 147 -271.98 147 -273 147 C-273 147.99 -273 148.98 -273 150 C-273.66 150 -274.32 150 -275 150 C-275 151.32 -275 152.64 -275 154 C-275.66 154 -276.32 154 -277 154 C-277 155.32 -277 156.64 -277 158 C-277.66 158 -278.32 158 -279 158 C-279 158.99 -279 159.98 -279 161 C-279.66 161 -280.32 161 -281 161 C-281 162.32 -281 163.64 -281 165 C-281.66 165 -282.32 165 -283 165 C-283.33 166.32 -283.66 167.64 -284 169 C-284.66 169 -285.32 169 -286 169 C-286 170.65 -286 172.3 -286 174 C-286.66 174 -287.32 174 -288 174 C-288.144375 174.598125 -288.28875 175.19625 -288.4375 175.8125 C-288.8872439 177.56150404 -289.42892341 179.28677023 -290 181 C-290.66 181 -291.32 181 -292 181 C-292 182.32 -292 183.64 -292 185 C-292.66 185 -293.32 185 -294 185 C-294.33 186.65 -294.66 188.3 -295 190 C-295.66 190 -296.32 190 -297 190 C-297 191.32 -297 192.64 -297 194 C-297.66 194 -298.32 194 -299 194 C-299 195.32 -299 196.64 -299 198 C-300.1875 199.75 -300.1875 199.75 -302 201 C-304.6875 201.1875 -304.6875 201.1875 -307 201 C-307 200.34 -307 199.68 -307 199 C-307.99 199 -308.98 199 -310 199 C-310 197.35 -310 195.7 -310 194 C-310.66 194 -311.32 194 -312 194 C-311.505 192.02 -311.505 192.02 -311 190 C-308.125 194.75 -308.125 194.75 -307 197 C-304.12768351 195.96448676 -303.11186496 195.18507501 -301.5078125 192.53125 C-300.82332031 191.03078125 -300.82332031 191.03078125 -300.125 189.5 C-297.75087198 184.47989723 -295.14310792 179.76418038 -292.19921875 175.05859375 C-290.86027 172.92128588 -290.86027 172.92128588 -290 170 C-289.34 170 -288.68 170 -288 170 C-287.71511719 169.2678125 -287.43023437 168.535625 -287.13671875 167.78125 C-283.49429558 158.86920431 -278.59468622 150.44786688 -274 142 C-273.34 142 -272.68 142 -272 142 C-271.75378906 141.15824219 -271.50757813 140.31648437 -271.25390625 139.44921875 C-269.85525532 135.6018394 -268.0270645 132.31504371 -265.9375 128.8125 C-263.11129079 124.08109198 -263.11129079 124.08109198 -261 119 C-260.34 119 -259.68 119 -259 119 C-258.67 117.35 -258.34 115.7 -258 114 C-257.34 114 -256.68 114 -256 114 C-255.6596875 112.824375 -255.6596875 112.824375 -255.3125 111.625 C-253.59339067 106.87698375 -251.31915279 102.47897448 -249 98 C-248.34 98 -247.68 98 -247 98 C-246.61714844 96.7315625 -246.61714844 96.7315625 -246.2265625 95.4375 C-244.9149413 91.76161892 -243.24057829 88.41384149 -241.375 85 C-241.02671143 84.35498535 -240.67842285 83.7099707 -240.31958008 83.04541016 C-236.17137344 75.40363428 -231.91404022 67.80673792 -227.40625 60.37109375 C-226.10652137 58.17960687 -224.93600283 55.97324714 -223.8125 53.6875 C-223.29623047 52.64142578 -223.29623047 52.64142578 -222.76953125 51.57421875 C-222.51558594 51.05472656 -222.26164062 50.53523438 -222 50 C-221.34 50 -220.68 50 -220 50 C-219.731875 49.113125 -219.46375 48.22625 -219.1875 47.3125 C-217.14973225 41.6282005 -217.14973225 41.6282005 -215 39 C-212.23656387 38.49747995 -210.07902976 38.34443511 -207.31221008 38.39872742 C-206.5215212 38.39445529 -205.73083232 38.39018317 -204.91618317 38.38578159 C-202.25776089 38.37752346 -199.60090465 38.40508167 -196.94262695 38.43237305 C-195.04073117 38.43378291 -193.13883267 38.43299274 -191.23693848 38.43016052 C-186.0655564 38.42872257 -180.89475107 38.4581738 -175.72350335 38.49303031 C-170.32230549 38.52423063 -164.92109524 38.52721955 -159.51982117 38.53315735 C-149.28812023 38.5487144 -139.05668557 38.58976812 -128.82510203 38.6399048 C-117.17837508 38.69574032 -105.5316356 38.72327019 -93.88480818 38.74838197 C-69.92305768 38.80068229 -45.96154374 38.88866079 -22 39 C-21.69320313 38.22269531 -21.38640625 37.44539063 -21.0703125 36.64453125 C-20.14565792 34.35989202 -19.13360087 32.18623025 -18 30 C-17.34 30 -16.68 30 -16 30 C-15.9175 29.319375 -15.835 28.63875 -15.75 27.9375 C-14.77667472 24.1253093 -13.04192545 21.35929671 -11 18 C-10.34 18 -9.68 18 -9 18 C-8.731875 17.13375 -8.46375 16.2675 -8.1875 15.375 C-5.07865169 6.53932584 -5.07865169 6.53932584 -2 5 C-1.27840576 3.35636866 -0.60648579 1.68949614 0 0 Z " fill="#E67D10" transform="translate(424,3)"/>
<path d="M0 0 C0.33 0 0.66 0 1 0 C1 2.97 1 5.94 1 9 C0.34 9 -0.32 9 -1 9 C-1 9.99 -1 10.98 -1 12 C-1.66 12 -2.32 12 -3 12 C-3 13.32 -3 14.64 -3 16 C-3.66 16 -4.32 16 -5 16 C-5 17.32 -5 18.64 -5 20 C-5.66 20 -6.32 20 -7 20 C-7 20.99 -7 21.98 -7 23 C-7.99 23 -8.98 23 -10 23 C-10 24.32 -10 25.64 -10 27 C-10.66 27 -11.32 27 -12 27 C-12 28.32 -12 29.64 -12 31 C-12.66 31 -13.32 31 -14 31 C-14 31.99 -14 32.98 -14 34 C-14.66 34 -15.32 34 -16 34 C-16 35.32 -16 36.64 -16 38 C-16.66 38 -17.32 38 -18 38 C-18.103125 38.556875 -18.20625 39.11375 -18.3125 39.6875 C-19.13086853 42.44019415 -20.52598918 44.5433153 -22 47 C-22.69579454 49.19130534 -22.69579454 49.19130534 -23 51 C-23.66 51 -24.32 51 -25 51 C-25 51.99 -25 52.98 -25 54 C-25.66 54 -26.32 54 -27 54 C-27 55.32 -27 56.64 -27 58 C-27.66 58 -28.32 58 -29 58 C-29 58.99 -29 59.98 -29 61 C-29.66 61 -30.32 61 -31 61 C-31 62.32 -31 63.64 -31 65 C-31.99 65 -32.98 65 -34 65 C-34 66.32 -34 67.64 -34 69 C-34.66 69 -35.32 69 -36 69 C-36 69.99 -36 70.98 -36 72 C-36.66 72 -37.32 72 -38 72 C-38 73.32 -38 74.64 -38 76 C-38.66 76 -39.32 76 -40 76 C-40.12375 76.7425 -40.2475 77.485 -40.375 78.25 C-40.95486701 80.80141485 -41.73708739 82.7267573 -43 85 C-43.66 85 -44.32 85 -45 85 C-45.28875 85.886875 -45.5775 86.77375 -45.875 87.6875 C-46.83148748 90.50382424 -47.86798946 93.25083156 -49 96 C-49.66 96 -50.32 96 -51 96 C-51.144375 96.598125 -51.28875 97.19625 -51.4375 97.8125 C-51.8872439 99.56150404 -52.42892341 101.28677023 -53 103 C-53.66 103 -54.32 103 -55 103 C-55.33 104.32 -55.66 105.64 -56 107 C-56.66 107 -57.32 107 -58 107 C-58.144375 107.7425 -58.28875 108.485 -58.4375 109.25 C-58.90187492 111.52027739 -59.41863569 113.75759479 -60 116 C-60.66 116 -61.32 116 -62 116 C-62.4021875 117.3303125 -62.4021875 117.3303125 -62.8125 118.6875 C-63.9250635 121.7909666 -65.10195778 124.31110685 -67 127 C-67.66 127 -68.32 127 -69 127 C-69 127.99 -69 128.98 -69 130 C-69.66 130 -70.32 130 -71 130 C-71 131.32 -71 132.64 -71 134 C-71.66 134 -72.32 134 -73 134 C-73 135.65 -73 137.3 -73 139 C-73.66 139 -74.32 139 -75 139 C-75 140.32 -75 141.64 -75 143 C-75.66 143 -76.32 143 -77 143 C-77 144.32 -77 145.64 -77 147 C-77.99 147 -78.98 147 -80 147 C-80 147.99 -80 148.98 -80 150 C-80.66 150 -81.32 150 -82 150 C-82 150.66 -82 151.32 -82 152 C-83.32 151.67 -84.64 151.34 -86 151 C-85.01 148.69 -84.02 146.38 -83 144 C-82.34 144 -81.68 144 -81 144 C-80.690625 143.05125 -80.38125 142.1025 -80.0625 141.125 C-79 138 -79 138 -78 136 C-77.34 136 -76.68 136 -76 136 C-75.7525 135.175 -75.505 134.35 -75.25 133.5 C-73.81295189 129.47626529 -71.97645485 125.78020976 -70 122 C-69.34 122 -68.68 122 -68 122 C-67.7525 121.175 -67.505 120.35 -67.25 119.5 C-65.81295189 115.47626529 -63.97645485 111.78020976 -62 108 C-61.34 108 -60.68 108 -60 108 C-59.5978125 106.71029297 -59.5978125 106.71029297 -59.1875 105.39453125 C-58.00324395 102.00927301 -56.59830979 98.8961069 -55 95.6875 C-54.484375 94.63949219 -53.96875 93.59148437 -53.4375 92.51171875 C-52 90 -52 90 -50 89 C-48.94952356 86.68895182 -47.94992562 84.35416349 -47 82 C-46.67 81.34 -46.34 80.68 -46 80 C-45.34 80 -44.68 80 -44 80 C-43.896875 79.278125 -43.79375 78.55625 -43.6875 77.8125 C-42.92377476 74.68816949 -41.70839582 72.72077853 -40 70 C-38.62697696 67.35273255 -37.30964051 64.67911232 -36 62 C-35.34 62 -34.68 62 -34 62 C-33.731875 60.948125 -33.46375 59.89625 -33.1875 58.8125 C-32.12747781 55.40927088 -31.08611696 52.86841082 -29 50 C-28.34 50 -27.68 50 -27 50 C-26.74734375 49.14792969 -26.4946875 48.29585938 -26.234375 47.41796875 C-24.91216207 43.75677789 -23.22303518 40.66589506 -21.25 37.3125 C-20.5342665 36.08515384 -19.81943383 34.85728196 -19.10546875 33.62890625 C-18.75145996 33.02191895 -18.39745117 32.41493164 -18.03271484 31.78955078 C-15.23143324 26.93532049 -12.50679515 22.01359029 -10 17 C-9.34 17 -8.68 17 -8 17 C-7.896875 16.29875 -7.79375 15.5975 -7.6875 14.875 C-6.90640997 11.60862353 -5.57941257 8.9528148 -4 6 C-3.34 6 -2.68 6 -2 6 C-1.34 4.02 -0.68 2.04 0 0 Z " fill="#DB750E" transform="translate(301,217)"/>
<path d="M0 0 C0.99 0.33 1.98 0.66 3 1 C3.20140476 4.62528568 2.85776765 6.86501708 1 10 C0.34 10 -0.32 10 -1 10 C-1 10.66 -1 11.32 -1 12 C-1.66 12 -2.32 12 -3 12 C-3 13.32 -3 14.64 -3 16 C-3.99 16 -4.98 16 -6 16 C-6 16.99 -6 17.98 -6 19 C-6.66 19 -7.32 19 -8 19 C-8 20.32 -8 21.64 -8 23 C-8.66 23 -9.32 23 -10 23 C-10 24.65 -10 26.3 -10 28 C-10.66 28 -11.32 28 -12 28 C-12.0825 28.61875 -12.165 29.2375 -12.25 29.875 C-13 32 -13 32 -14.75818253 33.11778069 C-17.22459824 34.08838583 -18.97615882 34.24659871 -21.61907959 34.24050903 C-23.00304176 34.24463303 -23.00304176 34.24463303 -24.41496277 34.24884033 C-25.41981216 34.24164978 -26.42466156 34.23445923 -27.45996094 34.22705078 C-28.52368423 34.22734283 -29.58740753 34.22763489 -30.68336487 34.22793579 C-34.20045113 34.2265421 -37.71732573 34.21097882 -41.234375 34.1953125 C-43.67246383 34.19158252 -46.11055416 34.18873547 -48.54864502 34.18673706 C-54.96677791 34.17909948 -61.38482034 34.15944982 -67.80291748 34.1373291 C-74.35167212 34.11687342 -80.90044137 34.10773593 -87.44921875 34.09765625 C-100.29951777 34.07620414 -113.14975407 34.04245085 -126 34 C-126 34.66 -126 35.32 -126 36 C-126.66 36 -127.32 36 -128 36 C-128 36.66 -128 37.32 -128 38 C-128.66 38 -129.32 38 -130 38 C-130.12375 38.7425 -130.2475 39.485 -130.375 40.25 C-130.95486701 42.80141485 -131.73708739 44.7267573 -133 47 C-133.66 47 -134.32 47 -135 47 C-135 47.99 -135 48.98 -135 50 C-135.66 50 -136.32 50 -137 50 C-137 51.32 -137 52.64 -137 54 C-137.66 54 -138.32 54 -139 54 C-139.144375 54.598125 -139.28875 55.19625 -139.4375 55.8125 C-139.8872439 57.56150404 -140.42892341 59.28677023 -141 61 C-141.66 61 -142.32 61 -143 61 C-143 62.32 -143 63.64 -143 65 C-143.99 65 -144.98 65 -146 65 C-146 68.3 -146 71.6 -146 75 C-150 70.75757576 -150 70.75757576 -150 67.5625 C-149.01560276 65.03998208 -147.74896449 63.06992146 -146.17578125 60.87890625 C-144.13128023 57.61178003 -142.7412143 54.03245226 -141.24609375 50.48828125 C-140.04142835 48.08272683 -138.90645291 46.83584354 -137 45 C-135.87351782 43.03370865 -135.87351782 43.03370865 -134.9375 40.9375 C-133.77100702 38.42181031 -132.98948974 36.98948974 -131 35 C-130.67 33.68 -130.34 32.36 -130 31 C-92.38 31 -54.76 31 -16 31 C-15.67 29.35 -15.34 27.7 -15 26 C-13.9375 23.6875 -13.9375 23.6875 -13 22 C-12.34 22 -11.68 22 -11 22 C-10.80664062 21.38511719 -10.61328125 20.77023438 -10.4140625 20.13671875 C-10.15367187 19.32847656 -9.89328125 18.52023438 -9.625 17.6875 C-9.36976563 16.88699219 -9.11453125 16.08648437 -8.8515625 15.26171875 C-8 13 -8 13 -6 10 C-5.34 10 -4.68 10 -4 10 C-3.8453125 8.9171875 -3.8453125 8.9171875 -3.6875 7.8125 C-2.94013068 4.75508007 -1.71954811 2.61670365 0 0 Z " fill="#9E550A" transform="translate(332,163)"/>
<path d="M0 0 C1.32 0.33 2.64 0.66 4 1 C3.42415568 3.38564077 2.77772405 5.66682784 2 8 C1.34 8 0.68 8 0 8 C-0.66 9.98 -1.32 11.96 -2 14 C-2.99 14 -3.98 14 -5 14 C-5 15.65 -5 17.3 -5 19 C-5.66 19 -6.32 19 -7 19 C-7.144375 19.61875 -7.28875 20.2375 -7.4375 20.875 C-8 23 -8 23 -9 25 C-9.66 25 -10.32 25 -11 25 C-11.185625 26.11375 -11.185625 26.11375 -11.375 27.25 C-11.95486701 29.80141485 -12.73708739 31.7267573 -14 34 C-14.66 34 -15.32 34 -16 34 C-16 35.32 -16 36.64 -16 38 C-16.66 38 -17.32 38 -18 38 C-18 38.99 -18 39.98 -18 41 C-18.66 41 -19.32 41 -20 41 C-20 42.32 -20 43.64 -20 45 C-20.66 45 -21.32 45 -22 45 C-22.103125 45.763125 -22.20625 46.52625 -22.3125 47.3125 C-23.06227192 50.24342658 -23.83473267 51.01517162 -26 53 C-26.33 53.99 -26.66 54.98 -27 56 C-27.66 56 -28.32 56 -29 56 C-29.66 58.97 -30.32 61.94 -31 65 C-31.66 65 -32.32 65 -33 65 C-33.144375 65.598125 -33.28875 66.19625 -33.4375 66.8125 C-34.72413793 71.81609195 -34.72413793 71.81609195 -38 74 C-39.32 74 -40.64 74 -42 74 C-42 74.66 -42 75.32 -42 76 C-54.21 76 -66.42 76 -79 76 C-79 75.34 -79 74.68 -79 74 C-80.32 73.67 -81.64 73.34 -83 73 C-83 72.67 -83 72.34 -83 72 C-69.14 71.67 -55.28 71.34 -41 71 C-40.67 70.34 -40.34 69.68 -40 69 C-39.34 69 -38.68 69 -38 69 C-37.85304688 68.46632813 -37.70609375 67.93265625 -37.5546875 67.3828125 C-35.65591016 61.07537972 -32.96781869 55.29410907 -29 50 C-28.34 50 -27.68 50 -27 50 C-26.7525 49.175 -26.505 48.35 -26.25 47.5 C-24.81295189 43.47626529 -22.97645485 39.78020976 -21 36 C-20.34 36 -19.68 36 -19 36 C-18.731875 34.948125 -18.46375 33.89625 -18.1875 32.8125 C-17.12747781 29.40927088 -16.08611696 26.86841082 -14 24 C-13.34 24 -12.68 24 -12 24 C-11.9175 23.319375 -11.835 22.63875 -11.75 21.9375 C-10.77667472 18.1253093 -9.04192545 15.35929671 -7 12 C-6.34 12 -5.68 12 -5 12 C-4.80664062 11.38511719 -4.61328125 10.77023438 -4.4140625 10.13671875 C-4.15367187 9.32847656 -3.89328125 8.52023438 -3.625 7.6875 C-3.24214844 6.48673828 -3.24214844 6.48673828 -2.8515625 5.26171875 C-2 3 -2 3 0 0 Z " fill="#D0700E" transform="translate(388,65)"/>
<path d="M0 0 C2.33294775 -0.04241723 4.66702567 -0.04092937 7 0 C7.33 0.33 7.66 0.66 8 1 C10.10915862 1.09887534 12.22169978 1.12555726 14.33317471 1.12584114 C15.00570208 1.12729458 15.67822946 1.12874802 16.37113646 1.13024551 C18.65291814 1.1339312 20.93463408 1.13040729 23.21641541 1.12698364 C24.85752397 1.12813445 26.49863228 1.1297217 28.13974005 1.13171089 C32.67145277 1.1359098 37.20314461 1.133811 41.73485744 1.13072467 C46.6135891 1.12847304 51.49231704 1.131949 56.37104797 1.13470459 C65.9374815 1.13916394 75.5039072 1.13818506 85.07034104 1.13529195 C92.84204099 1.13303843 100.61373874 1.13272517 108.38543892 1.13381577 C109.48931976 1.133969 110.59320059 1.13412223 111.73053237 1.13428011 C113.97268537 1.13459982 116.21483838 1.13492403 118.45699138 1.1352527 C139.50902286 1.13810801 160.56104999 1.13481974 181.61308075 1.12945233 C199.69542515 1.12498487 217.77776313 1.12575966 235.86010742 1.13037109 C256.83253175 1.13571703 277.80495227 1.13783266 298.77737719 1.13475883 C301.01183323 1.13444026 303.24628927 1.13412589 305.48074532 1.13381577 C307.13005453 1.13358435 307.13005453 1.13358435 308.81268312 1.13334826 C316.57883229 1.13248312 324.34497905 1.13394594 332.11112785 1.13629532 C341.57011744 1.13909376 351.02909872 1.13835415 360.48808735 1.13301457 C365.31860733 1.13037806 370.14911344 1.12937165 374.97963333 1.13266373 C379.39543367 1.13562774 383.81120719 1.13403208 388.22700507 1.12868617 C389.83063381 1.12756244 391.43426478 1.12815222 393.0378921 1.13056196 C395.20562237 1.13357129 397.37325891 1.13051584 399.54098415 1.12584114 C400.74871217 1.12567879 401.95644019 1.12551644 403.20076603 1.12534916 C405.95460157 1.19217992 405.95460157 1.19217992 408 0 C410.6723621 -0.13415472 413.32250488 -0.04318541 416 0 C416.93065133 2.60582371 417.14917407 3.64198224 416.0625 6.25 C415.711875 6.8275 415.36125 7.405 415 8 C414.67 7.34 414.34 6.68 414 6 C414.33 5.01 414.66 4.02 415 3 C277.72 3 140.44 3 -1 3 C-0.67 4.98 -0.34 6.96 0 9 C-0.66 9 -1.32 9 -2 9 C-2 6.69 -2 4.38 -2 2 C-1.34 2 -0.68 2 0 2 C0 1.34 0 0.68 0 0 Z " fill="#341A04" transform="translate(7,1)"/>
<path d="M0 0 C0.92212784 0.00359528 1.84425568 0.00719055 2.79432678 0.01089478 C4.24295105 0.01067574 4.24295105 0.01067574 5.72084045 0.01045227 C8.92952175 0.01115182 12.1381458 0.0189462 15.34681702 0.02676392 C17.56499195 0.02862794 19.78316729 0.03005192 22.00134277 0.03105164 C27.85231148 0.03487801 33.70325554 0.04470931 39.55421448 0.05575562 C45.51958381 0.06596717 51.4849571 0.07054871 57.45033264 0.07559204 C69.16453621 0.08633147 80.87872144 0.10340932 92.59291077 0.12442017 C92.59291077 1.11442017 92.59291077 2.10442017 92.59291077 3.12442017 C88.30120423 4.33105635 84.12004715 4.25675974 79.6934967 4.23794556 C78.79558411 4.23809158 77.89767151 4.23823761 76.97254944 4.23838806 C74.00743689 4.23769192 71.04238733 4.22991346 68.07728577 4.22207642 C66.02034031 4.22021118 63.96339442 4.21878777 61.90644836 4.2177887 C56.49446891 4.21397187 51.08251633 4.20414867 45.67054749 4.19308472 C40.14727644 4.18285268 34.62400106 4.17828723 29.10072327 4.17324829 C18.26477397 4.16252568 7.4288446 4.14545924 -3.40708923 4.12442017 C-4.06708923 5.44442017 -4.72708923 6.76442017 -5.40708923 8.12442017 C-6.06708923 8.12442017 -6.72708923 8.12442017 -7.40708923 8.12442017 C-7.34521423 8.97004517 -7.28333923 9.81567017 -7.21958923 10.68692017 C-7.44724551 14.8606186 -8.60916738 17.37874963 -10.40708923 21.12442017 C-11.06708923 21.12442017 -11.72708923 21.12442017 -12.40708923 21.12442017 C-12.40708923 22.77442017 -12.40708923 24.42442017 -12.40708923 26.12442017 C-13.06708923 26.12442017 -13.72708923 26.12442017 -14.40708923 26.12442017 C-14.34521423 27.45473267 -14.34521423 27.45473267 -14.28208923 28.81192017 C-14.40996341 32.20058578 -14.70330134 34.20364092 -16.40708923 37.12442017 C-18.78208923 38.56192017 -18.78208923 38.56192017 -21.40708923 39.12442017 C-23.71958923 38.24942017 -23.71958923 38.24942017 -25.40708923 37.12442017 C-25.40708923 35.80442017 -25.40708923 34.48442017 -25.40708923 33.12442017 C-26.06708923 33.12442017 -26.72708923 33.12442017 -27.40708923 33.12442017 C-27.40708923 31.80442017 -27.40708923 30.48442017 -27.40708923 29.12442017 C-26.74708923 29.12442017 -26.08708923 29.12442017 -25.40708923 29.12442017 C-24.95333923 30.09379517 -24.49958923 31.06317017 -24.03208923 32.06192017 C-22.74922702 35.19521598 -22.74922702 35.19521598 -20.40708923 36.12442017 C-20.22146423 34.96942017 -20.03583923 33.81442017 -19.84458923 32.62442017 C-18.62295929 26.99234681 -16.26896859 21.92623501 -13.88340759 16.71035767 C-12.43462967 13.53453163 -11.17819709 10.52730181 -10.40708923 7.12442017 C-9.74708923 7.12442017 -9.08708923 7.12442017 -8.40708923 7.12442017 C-8.26271423 6.15504517 -8.11833923 5.18567017 -7.96958923 4.18692017 C-6.99572526 -1.11522811 -4.98164883 0.00820745 0 0 Z " fill="#A3580F" transform="translate(69.40708923339844,41.875579833984375)"/>
<path d="M0 0 C22.77 0 45.54 0 69 0 C68.67 0.99 68.34 1.98 68 3 C67.23436234 2.99777939 66.46872467 2.99555878 65.67988586 2.99327087 C58.45581703 2.97321341 51.23176175 2.95799804 44.00767231 2.94818783 C40.29392112 2.94297473 36.580193 2.93590567 32.86645508 2.92456055 C29.28085797 2.91367574 25.695283 2.90771131 22.10967064 2.90512276 C20.74337605 2.90327859 19.37708264 2.8996774 18.0107975 2.89426994 C16.09355481 2.88698538 14.17628973 2.88659131 12.2590332 2.88647461 C10.62355278 2.88314369 10.62355278 2.88314369 8.95503235 2.87974548 C6.18954176 2.99228663 3.69023309 3.371196 1 4 C1 4.99 1 5.98 1 7 C0.34 7 -0.32 7 -1 7 C-1 8.32 -1 9.64 -1 11 C-1.66 11 -2.32 11 -3 11 C-3 11.99 -3 12.98 -3 14 C-3.66 14 -4.32 14 -5 14 C-4.95875 14.7425 -4.9175 15.485 -4.875 16.25 C-5.00398134 19.08758952 -5.57051222 20.58773938 -7 23 C-7.66 23 -8.32 23 -9 23 C-9.33 24.32 -9.66 25.64 -10 27 C-10.66 27 -11.32 27 -12 27 C-12 28.32 -12 29.64 -12 31 C-12.66 31 -13.32 31 -14 31 C-14 31.99 -14 32.98 -14 34 C-14.66 34 -15.32 34 -16 34 C-16 35.32 -16 36.64 -16 38 C-16.66 38 -17.32 38 -18 38 C-18.2165625 39.11375 -18.2165625 39.11375 -18.4375 40.25 C-18.90187492 42.52027739 -19.41863569 44.75759479 -20 47 C-20.99 47 -21.98 47 -23 47 C-23 48.32 -23 49.64 -23 51 C-23.66 51 -24.32 51 -25 51 C-25 51.99 -25 52.98 -25 54 C-25.66 54 -26.32 54 -27 54 C-27 55.32 -27 56.64 -27 58 C-27.66 58 -28.32 58 -29 58 C-29 59.32 -29 60.64 -29 62 C-30.32 62 -31.64 62 -33 62 C-32.39655166 57.91741122 -31.05381582 54.8528697 -29.0625 51.25 C-28.53785156 50.28578125 -28.01320312 49.3215625 -27.47265625 48.328125 C-26 46 -26 46 -24 45 C-22.97718092 43.27759883 -22.97718092 43.27759883 -22.0546875 41.18359375 C-21.52294922 40.03793945 -21.52294922 40.03793945 -20.98046875 38.86914062 C-20.61566406 38.06669922 -20.25085938 37.26425781 -19.875 36.4375 C-19.50246094 35.63119141 -19.12992188 34.82488281 -18.74609375 33.99414062 C-17.82507988 31.99861057 -16.9100095 30.0005664 -16 28 C-15.34 28 -14.68 28 -14 28 C-13.91878906 27.33613281 -13.83757812 26.67226562 -13.75390625 25.98828125 C-12.75192188 22.01668518 -10.91366546 18.75415441 -8.9375 15.1875 C-8.56044922 14.49462891 -8.18339844 13.80175781 -7.79492188 13.08789062 C-6.86916148 11.38871015 -5.93537688 9.69390575 -5 8 C-4.34 8 -3.68 8 -3 8 C-3 6.68 -3 5.36 -3 4 C-2.34 4 -1.68 4 -1 4 C-0.67 2.68 -0.34 1.36 0 0 Z " fill="#DF7A11" transform="translate(255,101)"/>
<path d="M0 0 C0.99 0 1.98 0 3 0 C3 1.65 3 3.3 3 5 C2.34 5 1.68 5 1 5 C1 6.32 1 7.64 1 9 C0.34 9 -0.32 9 -1 9 C-1.185625 9.8971875 -1.185625 9.8971875 -1.375 10.8125 C-2 13 -2 13 -4 16 C-4.66 16 -5.32 16 -6 16 C-6 17.32 -6 18.64 -6 20 C-6.66 20 -7.32 20 -8 20 C-8 20.99 -8 21.98 -8 23 C-8.66 23 -9.32 23 -10 23 C-10 24.32 -10 25.64 -10 27 C-10.66 27 -11.32 27 -12 27 C-12 28.32 -12 29.64 -12 31 C-12.66 31 -13.32 31 -14 31 C-14.33 32.65 -14.66 34.3 -15 36 C-15.66 36 -16.32 36 -17 36 C-17 36.66 -17 37.32 -17 38 C-17.66 38 -18.32 38 -19 38 C-19 38.66 -19 39.32 -19 40 C-83.68 40 -148.36 40 -215 40 C-215 39.67 -215 39.34 -215 39 C-151.31 39 -87.62 39 -22 39 C-21.34 37.35 -20.68 35.7 -20 34 C-19.34786461 32.65949948 -18.68620031 31.32338632 -18 30 C-17.34 30 -16.68 30 -16 30 C-15.9175 29.319375 -15.835 28.63875 -15.75 27.9375 C-14.77667472 24.1253093 -13.04192545 21.35929671 -11 18 C-10.34 18 -9.68 18 -9 18 C-8.731875 17.13375 -8.46375 16.2675 -8.1875 15.375 C-5.07865169 6.53932584 -5.07865169 6.53932584 -2 5 C-1.27840576 3.35636866 -0.60648579 1.68949614 0 0 Z " fill="#8F4E10" transform="translate(424,3)"/>
<path d="M0 0 C17.61129352 -0.04675311 35.22256762 -0.08200507 52.83390903 -0.10362434 C61.01144551 -0.11393005 69.18894338 -0.1279769 77.36645508 -0.15087891 C84.49526986 -0.17083438 91.62405669 -0.18372157 98.75289863 -0.18817699 C102.52638234 -0.19078072 106.29978606 -0.1968859 110.07324409 -0.21146011 C113.6280757 -0.22507813 117.1827947 -0.22921414 120.73764992 -0.22621536 C122.65788843 -0.22702422 124.5781148 -0.23776374 126.49832153 -0.24884033 C132.38600409 -0.23481268 137.45413201 -0.04758321 143 2 C143 1.34 143 0.68 143 0 C145.31 0 147.62 0 150 0 C150 0.66 150 1.32 150 2 C147.36781219 3.31609391 145.42299013 3.11644731 142.47566223 3.10534668 C141.32281329 3.10327461 140.16996435 3.10120255 138.9821806 3.09906769 C137.72711617 3.09151207 136.47205175 3.08395645 135.17895508 3.07617188 C133.87672658 3.07202019 132.57449808 3.0678685 131.23280811 3.063591 C127.15515348 3.04977538 123.07759508 3.02559589 119 3 C117.78736355 2.99296051 116.5747271 2.98592102 115.32534409 2.97866821 C106.92899522 2.92777107 98.53288193 2.85620102 90.13671875 2.78125 C87.51015819 2.7587217 84.88359669 2.73630374 82.2570343 2.71398926 C76.14165369 2.66185452 70.0262846 2.60848266 63.91091901 2.5546174 C56.9261074 2.49315783 49.9412835 2.43315189 42.95645845 2.37324238 C28.63762522 2.25039713 14.31880749 2.12580986 0 2 C0 1.34 0 0.68 0 0 Z " fill="#8E4C09" transform="translate(237,63)"/>
<path d="M0 0 C1.24580322 0.00553076 1.24580322 0.00553076 2.51677418 0.01117325 C3.94915928 0.00292526 3.94915928 0.00292526 5.41048145 -0.00548935 C6.97925289 0.01608231 6.97925289 0.01608231 8.57971668 0.03808975 C9.68230824 0.03750565 10.78489979 0.03692154 11.92090321 0.03631973 C15.57352403 0.03911144 19.22533372 0.07025614 22.87781239 0.10156631 C25.40700809 0.1090248 27.93620956 0.11471958 30.46541309 0.11871719 C36.44723322 0.13244093 42.42870396 0.16398141 48.410384 0.20411515 C55.22043988 0.24881556 62.03050967 0.27081548 68.84067571 0.29089689 C82.84931019 0.33271393 96.85768593 0.40307668 110.86609364 0.49219131 C110.86609364 0.82219131 110.86609364 1.15219131 110.86609364 1.49219131 C74.89609364 1.49219131 38.92609364 1.49219131 1.86609364 1.49219131 C1.86609364 2.15219131 1.86609364 2.81219131 1.86609364 3.49219131 C1.20609364 3.49219131 0.54609364 3.49219131 -0.13390636 3.49219131 C-0.13390636 4.15219131 -0.13390636 4.81219131 -0.13390636 5.49219131 C-0.79390636 5.49219131 -1.45390636 5.49219131 -2.13390636 5.49219131 C-2.25765636 6.23469131 -2.38140636 6.97719131 -2.50890636 7.74219131 C-3.08877338 10.29360616 -3.87099376 12.21894862 -5.13390636 14.49219131 C-5.79390636 14.49219131 -6.45390636 14.49219131 -7.13390636 14.49219131 C-7.13390636 15.48219131 -7.13390636 16.47219131 -7.13390636 17.49219131 C-7.79390636 17.49219131 -8.45390636 17.49219131 -9.13390636 17.49219131 C-9.13390636 18.81219131 -9.13390636 20.13219131 -9.13390636 21.49219131 C-9.79390636 21.49219131 -10.45390636 21.49219131 -11.13390636 21.49219131 C-11.35046886 22.38937881 -11.35046886 22.38937881 -11.57140636 23.30469131 C-12.02115026 25.05369536 -12.56282977 26.77896154 -13.13390636 28.49219131 C-13.79390636 28.49219131 -14.45390636 28.49219131 -15.13390636 28.49219131 C-15.13390636 29.81219131 -15.13390636 31.13219131 -15.13390636 32.49219131 C-16.12390636 32.49219131 -17.11390636 32.49219131 -18.13390636 32.49219131 C-18.13390636 35.79219131 -18.13390636 39.09219131 -18.13390636 42.49219131 C-22.13390636 38.24976707 -22.13390636 38.24976707 -22.13390636 35.05469131 C-21.14950913 32.5321734 -19.88287086 30.56211277 -18.30968761 28.37109756 C-16.26518659 25.10397135 -14.87512067 21.52464358 -13.38000011 17.98047256 C-12.1760696 15.57638561 -11.0420749 14.32443803 -9.13390636 12.49219131 C-8.04124741 10.59364784 -8.04124741 10.59364784 -7.13390636 8.55469131 C-3.55741434 0.82052731 -3.55741434 0.82052731 0 0 Z " fill="#EB8110" transform="translate(204.13390636444092,195.50780868530273)"/>
<path d="M0 0 C31.35 0 62.7 0 95 0 C94.67 0.99 94.34 1.98 94 3 C47.47 2.505 47.47 2.505 0 2 C0 1.34 0 0.68 0 0 Z " fill="#EF8313" transform="translate(66,43)"/>
<path d="M0 0 C0.99 0 1.98 0 3 0 C3 1.65 3 3.3 3 5 C2.34 5 1.68 5 1 5 C1 6.32 1 7.64 1 9 C0.34 9 -0.32 9 -1 9 C-1.12375 9.598125 -1.2475 10.19625 -1.375 10.8125 C-2 13 -2 13 -4 16 C-4.66 16 -5.32 16 -6 16 C-6 17.32 -6 18.64 -6 20 C-6.66 20 -7.32 20 -8 20 C-8 20.99 -8 21.98 -8 23 C-8.66 23 -9.32 23 -10 23 C-10 24.32 -10 25.64 -10 27 C-10.66 27 -11.32 27 -12 27 C-12 28.32 -12 29.64 -12 31 C-12.66 31 -13.32 31 -14 31 C-14.495 33.475 -14.495 33.475 -15 36 C-15.66 36 -16.32 36 -17 36 C-17 36.66 -17 37.32 -17 38 C-17.99 38 -18.98 38 -20 38 C-19.125 32.25 -19.125 32.25 -18 30 C-17.34 30 -16.68 30 -16 30 C-15.9175 29.319375 -15.835 28.63875 -15.75 27.9375 C-14.77667472 24.1253093 -13.04192545 21.35929671 -11 18 C-10.34 18 -9.68 18 -9 18 C-8.731875 17.13375 -8.46375 16.2675 -8.1875 15.375 C-5.07865169 6.53932584 -5.07865169 6.53932584 -2 5 C-1.27840576 3.35636866 -0.60648579 1.68949614 0 0 Z " fill="#DB750D" transform="translate(424,3)"/>
<path d="M0 0 C2.33294775 -0.04241723 4.66702567 -0.04092937 7 0 C7.33 0.33 7.66 0.66 8 1 C9.5304346 1.10794968 11.0657961 1.14682988 12.59999084 1.15821838 C14.09135811 1.17290161 14.09135811 1.17290161 15.612854 1.18788147 C16.71264587 1.19363693 17.81243774 1.1993924 18.94555664 1.20532227 C20.67215767 1.22017166 20.67215767 1.22017166 22.43363953 1.23532104 C26.25912379 1.26704662 30.0846205 1.29173703 33.91015625 1.31640625 C36.55431959 1.33696624 39.19847957 1.35796244 41.84263611 1.37937927 C48.10412039 1.42935606 54.36563045 1.47427631 60.62716526 1.51740164 C67.75404844 1.5667315 74.88088492 1.62166534 82.00772297 1.67708123 C96.67177112 1.79097777 111.33586573 1.89780003 126 2 C126 2.33 126 2.66 126 3 C84.09 3 42.18 3 -1 3 C-0.67 4.98 -0.34 6.96 0 9 C-0.66 9 -1.32 9 -2 9 C-2 6.69 -2 4.38 -2 2 C-1.34 2 -0.68 2 0 2 C0 1.34 0 0.68 0 0 Z " fill="#351B04" transform="translate(7,1)"/>
<path d="M0 0 C0.99 0 1.98 0 3 0 C3 0.99 3 1.98 3 3 C3.66 3 4.32 3 5 3 C5 4.32 5 5.64 5 7 C5.66 7 6.32 7 7 7 C7 8.32 7 9.64 7 11 C7.66 11 8.32 11 9 11 C9 11.99 9 12.98 9 14 C9.66 14 10.32 14 11 14 C11 15.32 11 16.64 11 18 C11.99 18.33 12.98 18.66 14 19 C14 19.99 14 20.98 14 22 C14.66 22 15.32 22 16 22 C17.76462683 25.08809695 18 26.23312136 18 30 C18.66 30 19.32 30 20 30 C20 31.32 20 32.64 20 34 C20.66 34 21.32 34 22 34 C22 34.66 22 35.32 22 36 C22.66 36 23.32 36 24 36 C26.43160605 39.36683915 27 40.73350364 27 45 C27.66 45 28.32 45 29 45 C29 46.32 29 47.64 29 49 C30.32 49.33 31.64 49.66 33 50 C32.67 50.99 32.34 51.98 32 53 C31.01 53 30.02 53 29 53 C24.37549858 44.80949415 19.75875188 36.61803272 15.28515625 28.34375 C14.10133767 26.18481034 12.8730926 24.05969229 11.625 21.9375 C10 19 10 19 10 17 C9.34 17 8.68 17 8 17 C4.04 8.585 4.04 8.585 0 0 Z " fill="#E07A10" transform="translate(186,239)"/>
<path d="M0 0 C40.92 0 81.84 0 124 0 C124 0.33 124 0.66 124 1 C123.37916377 1.00423194 122.75832754 1.00846388 122.11867809 1.01282406 C107.02111266 1.11607229 91.92359639 1.22470129 76.8261137 1.33933926 C69.525124 1.39464688 62.2241294 1.44812485 54.9230957 1.49731445 C48.56045126 1.54018642 42.19784244 1.58647203 35.83525306 1.63687855 C32.46547908 1.66345521 29.09571205 1.68830767 25.72589684 1.70907402 C21.966547 1.73309828 18.20729142 1.76315575 14.44799805 1.79467773 C12.76701775 1.80331093 12.76701775 1.80331093 11.05207825 1.81211853 C9.5187233 1.82680176 9.5187233 1.82680176 7.95439148 1.84178162 C7.06486125 1.84823417 6.17533102 1.85468672 5.25884533 1.8613348 C2.83177113 1.91301763 2.83177113 1.91301763 0 3 C0 2.01 0 1.02 0 0 Z " fill="#130A00" transform="translate(232,65)"/>
<path d="M0 0 C37.29 0 74.58 0 113 0 C113 0.33 113 0.66 113 1 C77.03 1 41.06 1 4 1 C4 1.66 4 2.32 4 3 C3.34 3 2.68 3 2 3 C2 3.66 2 4.32 2 5 C1.01 4.67 0.02 4.34 -1 4 C-0.67 2.68 -0.34 1.36 0 0 Z " fill="#F18613" transform="translate(202,196)"/>
<path d="M0 0 C0.33 0 0.66 0 1 0 C1 2.97 1 5.94 1 9 C0.34 9 -0.32 9 -1 9 C-1 9.99 -1 10.98 -1 12 C-1.66 12 -2.32 12 -3 12 C-3 13.32 -3 14.64 -3 16 C-3.66 16 -4.32 16 -5 16 C-5 17.32 -5 18.64 -5 20 C-5.66 20 -6.32 20 -7 20 C-7 20.99 -7 21.98 -7 23 C-8.65 23 -10.3 23 -12 23 C-12 23.99 -12 24.98 -12 26 C-12.66 26 -13.32 26 -14 26 C-12.94124926 22.59687262 -11.99097846 19.98646769 -10 17 C-9.34 17 -8.68 17 -8 17 C-7.896875 16.29875 -7.79375 15.5975 -7.6875 14.875 C-6.90640997 11.60862353 -5.57941257 8.9528148 -4 6 C-3.34 6 -2.68 6 -2 6 C-1.34 4.02 -0.68 2.04 0 0 Z " fill="#D06F0E" transform="translate(301,217)"/>
<path d="M0 0 C0.66 0 1.32 0 2 0 C2 2.31 2 4.62 2 7 C1.34 7 0.68 7 0 7 C0 7.99 0 8.98 0 10 C-0.66 10 -1.32 10 -2 10 C-1.938125 11.11375 -1.938125 11.11375 -1.875 12.25 C-2.00398134 15.08758952 -2.57051222 16.58773938 -4 19 C-4.66 19 -5.32 19 -6 19 C-6.33 20.32 -6.66 21.64 -7 23 C-7.99 23 -8.98 23 -10 23 C-10 23.66 -10 24.32 -10 25 C-10.66 25 -11.32 25 -12 25 C-12 25.99 -12 26.98 -12 28 C-12.66 28 -13.32 28 -14 28 C-13.67 26.68 -13.34 25.36 -13 24 C-12.34 24 -11.68 24 -11 24 C-10.91878906 23.33613281 -10.83757812 22.67226562 -10.75390625 21.98828125 C-9.75192188 18.01668518 -7.91366546 14.75415441 -5.9375 11.1875 C-5.37192383 10.14819336 -5.37192383 10.14819336 -4.79492188 9.08789062 C-3.86916148 7.38871015 -2.93537688 5.69390575 -2 4 C-1.34 4 -0.68 4 0 4 C0 2.68 0 1.36 0 0 Z " fill="#CF6F0E" transform="translate(252,105)"/>
<path d="M0 0 C13.36929696 -0.13751277 26.65131342 0.25619259 40 1 C40 1.66 40 2.32 40 3 C27.79 3 15.58 3 3 3 C3 2.34 3 1.68 3 1 C2.01 0.67 1.02 0.34 0 0 Z " fill="#EB8111" transform="translate(306,138)"/>
<path d="M0 0 C0.97608217 2.92824652 1.08226668 4.95613276 1 8 C0.34 8 -0.32 8 -1 8 C-1 9.65 -1 11.3 -1 13 C-1.66 13 -2.32 13 -3 13 C-3.2165625 13.8971875 -3.2165625 13.8971875 -3.4375 14.8125 C-3.8872439 16.56150404 -4.42892341 18.28677023 -5 20 C-6.65 19.67 -8.3 19.34 -10 19 C-8.53281712 13.66478954 -5.98748551 9.57517435 -3 5 C-1.99490786 3.33639922 -0.99230897 1.67125722 0 0 Z " fill="#CD6D0D" transform="translate(194,68)"/>
<path d="M0 0 C0.99 0 1.98 0 3 0 C3 1.65 3 3.3 3 5 C2.34 5 1.68 5 1 5 C1 6.32 1 7.64 1 9 C0.34 9 -0.32 9 -1 9 C-1.12375 9.598125 -1.2475 10.19625 -1.375 10.8125 C-2 13 -2 13 -4 16 C-4.66 16 -5.32 16 -6 16 C-6 17.32 -6 18.64 -6 20 C-6.99 19.67 -7.98 19.34 -9 19 C-8.40651139 17.22555943 -7.79977999 15.45554447 -7.1875 13.6875 C-6.68283203 12.20830078 -6.68283203 12.20830078 -6.16796875 10.69921875 C-5.03471599 8.08022993 -4.06301199 6.88361965 -2 5 C-0.80972016 2.40084462 -0.80972016 2.40084462 0 0 Z " fill="#E27910" transform="translate(424,3)"/>
<path d="M0 0 C1.335163 4.00548901 0.68075022 6.51836716 -1.0625 10.3125 C-1.371875 10.869375 -1.68125 11.42625 -2 12 C-2.66 12 -3.32 12 -4 12 C-4 12.99 -4 13.98 -4 15 C-4.5775 15.2475 -5.155 15.495 -5.75 15.75 C-8.3002997 17.16683317 -10.01785701 18.87627537 -12 21 C-10.71938615 16.41113371 -8.96967015 13.66841607 -6 10 C-4.90609525 7.9509103 -3.9050216 5.87738138 -2.9296875 3.76953125 C-2 2 -2 2 0 0 Z " fill="#D0700F" transform="translate(201,198)"/>
<path d="M0 0 C2.08559201 3.43509272 2.08559201 3.43509272 1.6875 6.0625 C1.460625 6.701875 1.23375 7.34125 1 8 C0.67 8.99 0.34 9.98 0 11 C-0.66 11 -1.32 11 -2 11 C-2 12.32 -2 13.64 -2 15 C-2.8971875 15.3403125 -2.8971875 15.3403125 -3.8125 15.6875 C-6.5551169 17.33307014 -7.41968093 19.27035797 -9 22 C-9.66 22 -10.32 22 -11 22 C-9.43446085 16.58208704 -6.86138819 12.31240353 -3.83398438 7.59179688 C-2.23041041 5.0634261 -0.95200999 2.85602998 0 0 Z " fill="#D2700F" transform="translate(134,173)"/>
<path d="M0 0 C0.99 0.33 1.98 0.66 3 1 C3.20140476 4.62528568 2.85776765 6.86501708 1 10 C0.34 10 -0.32 10 -1 10 C-1 10.66 -1 11.32 -1 12 C-1.66 12 -2.32 12 -3 12 C-3 13.32 -3 14.64 -3 16 C-4.32 15.67 -5.64 15.34 -7 15 C-6.67 13.35 -6.34 11.7 -6 10 C-5.34 10 -4.68 10 -4 10 C-3.896875 9.278125 -3.79375 8.55625 -3.6875 7.8125 C-2.94013068 4.75508007 -1.71954811 2.61670365 0 0 Z " fill="#DD7810" transform="translate(332,163)"/>
<path d="M0 0 C0.33 0 0.66 0 1 0 C1.19355538 4.16144068 1.12847118 7.35119226 -1 11 C-3.375 12.4375 -3.375 12.4375 -6 13 C-8.3125 12.125 -8.3125 12.125 -10 11 C-10 9.68 -10 8.36 -10 7 C-10.66 7 -11.32 7 -12 7 C-12 5.68 -12 4.36 -12 3 C-11.34 3 -10.68 3 -10 3 C-9.54625 3.969375 -9.0925 4.93875 -8.625 5.9375 C-7.34213779 9.07079582 -7.34213779 9.07079582 -5 10 C-4.9175 9.46375 -4.835 8.9275 -4.75 8.375 C-3.73078583 5.14748846 -1.98040697 2.72305958 0 0 Z " fill="#EC8010" transform="translate(54,68)"/>
<path d="M0 0 C2.33294775 -0.04241723 4.66702567 -0.04092937 7 0 C7.33 0.33 7.66 0.66 8 1 C9.92478813 1.15806531 11.8549921 1.251135 13.78515625 1.31640625 C14.95498047 1.35830078 16.12480469 1.40019531 17.33007812 1.44335938 C19.17762695 1.50233398 19.17762695 1.50233398 21.0625 1.5625 C22.29806641 1.60568359 23.53363281 1.64886719 24.80664062 1.69335938 C27.87097335 1.79984198 30.93539073 1.90185424 34 2 C34 2.33 34 2.66 34 3 C22.45 3 10.9 3 -1 3 C-0.67 4.98 -0.34 6.96 0 9 C-0.66 9 -1.32 9 -2 9 C-2 6.69 -2 4.38 -2 2 C-1.34 2 -0.68 2 0 2 C0 1.34 0 0.68 0 0 Z " fill="#381B04" transform="translate(7,1)"/>
<path d="M0 0 C0.99 0 1.98 0 3 0 C3 1.65 3 3.3 3 5 C2.34 5 1.68 5 1 5 C1 5.99 1 6.98 1 8 C0.34 8 -0.32 8 -1 8 C-1 9.32 -1 10.64 -1 12 C-1.66 12 -2.32 12 -3 12 C-3 13.32 -3 14.64 -3 16 C-4.32 16.33 -5.64 16.66 -7 17 C-6.37954537 12.76677156 -4.89476441 9.47709705 -2.9375 5.6875 C-2.38964844 4.61886719 -1.84179688 3.55023438 -1.27734375 2.44921875 C-0.64505859 1.23685547 -0.64505859 1.23685547 0 0 Z " fill="#DE780F" transform="translate(183,87)"/>
<path d="M0 0 C0.99 0.33 1.98 0.66 3 1 C3 2.32 3 3.64 3 5 C2.34 5 1.68 5 1 5 C1 5.99 1 6.98 1 8 C0.34 8 -0.32 8 -1 8 C-1 9.32 -1 10.64 -1 12 C-1.66 12 -2.32 12 -3 12 C-3 13.32 -3 14.64 -3 16 C-4.32 16 -5.64 16 -7 16 C-6.40165275 11.85701333 -4.99335715 8.81805623 -2.9375 5.1875 C-2.11572266 3.72376953 -2.11572266 3.72376953 -1.27734375 2.23046875 C-0.85582031 1.49441406 -0.43429688 0.75835937 0 0 Z " fill="#D77410" transform="translate(229,147)"/>
<path d="M0 0 C0.93065133 2.60582371 1.14917407 3.64198224 0.0625 6.25 C-0.4634375 7.11625 -0.4634375 7.11625 -1 8 C-1.33 7.34 -1.66 6.68 -2 6 C-1.67 5.01 -1.34 4.02 -1 3 C-7.93 3 -14.86 3 -22 3 C-22 2.67 -22 2.34 -22 2 C-21.15695312 1.93941406 -20.31390625 1.87882813 -19.4453125 1.81640625 C-18.34960938 1.73261719 -17.25390625 1.64882813 -16.125 1.5625 C-15.03445313 1.48128906 -13.94390625 1.40007813 -12.8203125 1.31640625 C-0.94986072 -0.01532033 -0.94986072 -0.01532033 0 0 Z " fill="#68360A" transform="translate(423,1)"/>
<path d="M0 0 C0.66 0 1.32 0 2 0 C1.44271087 3.34373475 0.64826111 6.03312999 -1 9 C-1.66 9 -2.32 9 -3 9 C-3 10.32 -3 11.64 -3 13 C-4.32 13.33 -5.64 13.66 -7 14 C-6.39301257 9.87248551 -4.96189209 6.6678852 -3 3 C-2.01 3 -1.02 3 0 3 C0 2.01 0 1.02 0 0 Z " fill="#E57A0E" transform="translate(375,90)"/>
<path d="M0 0 C2.31 0 4.62 0 7 0 C7 0.66 7 1.32 7 2 C4.12981559 3.43509221 1.66456277 3.11158506 -1.5390625 3.09765625 C-2.84101563 3.09443359 -4.14296875 3.09121094 -5.484375 3.08789062 C-6.86458399 3.07953466 -8.24479232 3.07106971 -9.625 3.0625 C-11.01301926 3.05748501 -12.40104022 3.0529221 -13.7890625 3.04882812 C-17.19275132 3.03700976 -20.59635439 3.02053434 -24 3 C-24 2.67 -24 2.34 -24 2 C-16.08 2 -8.16 2 0 2 C0 1.34 0 0.68 0 0 Z " fill="#361C02" transform="translate(380,63)"/>
<path d="M0 0 C0.66 0 1.32 0 2 0 C2 1.32 2 2.64 2 4 C1.34 4 0.68 4 0 4 C-0.33 5.32 -0.66 6.64 -1 8 C-1.66 8 -2.32 8 -3 8 C-3 9.65 -3 11.3 -3 13 C-3.99 13 -4.98 13 -6 13 C-5.60791281 7.64147506 -3.6642613 3.85831875 0 0 Z " fill="#ED8111" transform="translate(141,164)"/>
<path d="M0 0 C0.99 0 1.98 0 3 0 C3 0.99 3 1.98 3 3 C3.66 3 4.32 3 5 3 C5 4.32 5 5.64 5 7 C5.66 7 6.32 7 7 7 C7 8.32 7 9.64 7 11 C7.66 11 8.32 11 9 11 C9 12.98 9 14.96 9 17 C6.25945632 13.67513619 4.57623951 10.16942114 2.8125 6.25 C2.28269531 5.07953125 1.75289062 3.9090625 1.20703125 2.703125 C0.80871094 1.81109375 0.41039062 0.9190625 0 0 Z " fill="#CB6E10" transform="translate(186,239)"/>
<path d="M0 0 C1 3 1 3 1 7 C0.34 7 -0.32 7 -1 7 C-1 8.32 -1 9.64 -1 11 C-2.32 11 -3.64 11 -5 11 C-5.103125 11.61875 -5.20625 12.2375 -5.3125 12.875 C-6 15 -6 15 -9 17 C-8.690625 16.401875 -8.38125 15.80375 -8.0625 15.1875 C-6.89790296 12.91043228 -6.89790296 12.91043228 -6 10 C-5.34 10 -4.68 10 -4 10 C-3.79503906 9.36191406 -3.59007812 8.72382813 -3.37890625 8.06640625 C-3.10949219 7.24011719 -2.84007812 6.41382813 -2.5625 5.5625 C-2.16224609 4.32693359 -2.16224609 4.32693359 -1.75390625 3.06640625 C-1 1 -1 1 0 0 Z " fill="#C86B0E" transform="translate(325,175)"/>
<path d="M0 0 C0.33 1.32 0.66 2.64 1 4 C0.34 4 -0.32 4 -1 4 C-1 4.99 -1 5.98 -1 7 C-1.99 7.495 -1.99 7.495 -3 8 C-3.33 8.99 -3.66 9.98 -4 11 C-4.99 10.67 -5.98 10.34 -7 10 C-5.76075855 5.04303419 -4.21422242 2.88341534 0 0 Z " fill="#E98010" transform="translate(201,61)"/>
<path d="M0 0 C0.66 0.66 1.32 1.32 2 2 C1.6730244 4.61580479 1.17960932 6.64078137 0 9 C-1.32 9 -2.64 9 -4 9 C-4 9.99 -4 10.98 -4 12 C-4.66 12 -5.32 12 -6 12 C-5.67 10.68 -5.34 9.36 -5 8 C-4.34 8 -3.68 8 -3 8 C-2.87625 7.236875 -2.7525 6.47375 -2.625 5.6875 C-2 3 -2 3 0 0 Z " fill="#DA750D" transform="translate(379,81)"/>
<path d="M0 0 C1.5 1.375 1.5 1.375 3 3 C3 3.66 3 4.32 3 5 C3.66 5 4.32 5 5 5 C5.67154933 6.28913487 6.33708859 7.58140204 7 8.875 C7.37125 9.59429687 7.7425 10.31359375 8.125 11.0546875 C9 13 9 13 9 15 C8.01 15 7.02 15 6 15 C6 13.68 6 12.36 6 11 C5.34 11 4.68 11 4 11 C4 10.01 4 9.02 4 8 C3.34 8 2.68 8 2 8 C2 6.68 2 5.36 2 4 C1.34 4 0.68 4 0 4 C0 2.68 0 1.36 0 0 Z " fill="#B46210" transform="translate(156,269)"/>
<path d="M0 0 C0.99 0.495 0.99 0.495 2 1 C2 1.66 2 2.32 2 3 C2.66 3 3.32 3 4 3 C4.83819158 4.62249941 5.6704116 6.24808497 6.5 7.875 C6.9640625 8.77992187 7.428125 9.68484375 7.90625 10.6171875 C9 13 9 13 9 15 C8.34 15 7.68 15 7 15 C7 13.68 7 12.36 7 11 C6.01 10.67 5.02 10.34 4 10 C4 9.01 4 8.02 4 7 C3.34 7 2.68 7 2 7 C2 6.01 2 5.02 2 4 C1.34 4 0.68 4 0 4 C0 2.68 0 1.36 0 0 Z " fill="#C06913" transform="translate(7,10)"/>
<path d="M0 0 C0.33 0 0.66 0 1 0 C1 4.29 1 8.58 1 13 C-3 8 -3 8 -2.875 5.375 C-2 3 -2 3 0 0 Z " fill="#DF7B10" transform="translate(185,225)"/>
<path d="M0 0 C0.66 0.66 1.32 1.32 2 2 C1.75558954 4.52557477 1.17639341 5.7852602 -0.4375 7.75 C-2 9 -2 9 -4 9 C-4 9.99 -4 10.98 -4 12 C-4.66 11.67 -5.32 11.34 -6 11 C-5.37755401 9.72791378 -4.75193233 8.45738118 -4.125 7.1875 C-3.77695312 6.47980469 -3.42890625 5.77210937 -3.0703125 5.04296875 C-2 3 -2 3 0 0 Z " fill="#CD6C0B" transform="translate(357,119)"/>
<path d="M0 0 C0.66 1.32 1.32 2.64 2 4 C-5.92 4 -13.84 4 -22 4 C-22 3.67 -22 3.34 -22 3 C-15.07 3 -8.14 3 -1 3 C-0.67 2.01 -0.34 1.02 0 0 Z " fill="#A1580F" transform="translate(403,39)"/>
<path d="M0 0 C2.31 0 4.62 0 7 0 C7.33 0.66 7.66 1.32 8 2 C3.545 2.495 3.545 2.495 -1 3 C-0.67 4.98 -0.34 6.96 0 9 C-0.66 9 -1.32 9 -2 9 C-2 6.69 -2 4.38 -2 2 C-1.34 2 -0.68 2 0 2 C0 1.34 0 0.68 0 0 Z " fill="#AE5D0D" transform="translate(7,1)"/>
<path d="M0 0 C0.99 0 1.98 0 3 0 C3 1.32 3 2.64 3 4 C2.34 4 1.68 4 1 4 C1 5.32 1 6.64 1 8 C-0.32 8.33 -1.64 8.66 -3 9 C-2.44271087 5.65626525 -1.64826111 2.96687001 0 0 Z " fill="#EB8112" transform="translate(179,95)"/>
<path d="M0 0 C0.66 0 1.32 0 2 0 C2.45375 0.969375 2.9075 1.93875 3.375 2.9375 C4.65786221 6.07079582 4.65786221 6.07079582 7 7 C7.33 6.01 7.66 5.02 8 4 C8 5.65 8 7.3 8 9 C5 9 5 9 2 8 C2 6.68 2 5.36 2 4 C1.34 4 0.68 4 0 4 C0 2.68 0 1.36 0 0 Z " fill="#C1670E" transform="translate(42,71)"/>
<path d="M0 0 C0.99 0.33 1.98 0.66 3 1 C3 2.65 3 4.3 3 6 C2.38125 6.2475 1.7625 6.495 1.125 6.75 C-1.35068687 8.20628639 -1.95125002 9.37812506 -3 12 C-4 10 -4 10 -3.22265625 7.6171875 C-2.83980469 6.71226563 -2.45695312 5.80734375 -2.0625 4.875 C-1.68222656 3.96492188 -1.30195312 3.05484375 -0.91015625 2.1171875 C-0.60980469 1.41851562 -0.30945312 0.71984375 0 0 Z " fill="#B25D0B" transform="translate(54,62)"/>
<path d="M0 0 C1.32 0 2.64 0 4 0 C3.42415568 2.38564077 2.77772405 4.66682784 2 7 C0.68 7.33 -0.64 7.66 -2 8 C-1.34 5.36 -0.68 2.72 0 0 Z " fill="#E1760F" transform="translate(62,43)"/>
<path d="M0 0 C0.66 0 1.32 0 2 0 C2 1.65 2 3.3 2 5 C1.34 5 0.68 5 0 5 C-0.33 6.32 -0.66 7.64 -1 9 C-1.99 9 -2.98 9 -4 9 C-3.35494404 5.51669784 -2.01782732 2.90567134 0 0 Z " fill="#EE8310" transform="translate(320,186)"/>
<path d="M0 0 C-0.33 0.99 -0.66 1.98 -1 3 C-7.6 2.67 -14.2 2.34 -21 2 C-21 1.67 -21 1.34 -21 1 C-18.06255476 0.83231709 -15.12505096 0.66581142 -12.1875 0.5 C-11.35412109 0.45230469 -10.52074219 0.40460937 -9.66210938 0.35546875 C-8.85966797 0.31035156 -8.05722656 0.26523437 -7.23046875 0.21875 C-6.49207764 0.17685547 -5.75368652 0.13496094 -4.99291992 0.09179688 C-3.33009506 0.01520467 -1.6645879 0 0 0 Z " fill="#EA7F10" transform="translate(161,43)"/>
<path d="M0 0 C0.99 0 1.98 0 3 0 C3 1.32 3 2.64 3 4 C4.32 4.33 5.64 4.66 7 5 C6.67 5.99 6.34 6.98 6 8 C5.01 8 4.02 8 3 8 C0 2.25 0 2.25 0 0 Z " fill="#CE7312" transform="translate(212,284)"/>
<path d="M0 0 C3.32901247 2.21934164 3.75023244 3.34683329 5 7 C5.99 7 6.98 7 8 7 C8 7.66 8 8.32 8 9 C6.02 9 4.04 9 2 9 C2 7.35 2 5.7 2 4 C1.34 4 0.68 4 0 4 C0 2.68 0 1.36 0 0 Z " fill="#BB630F" transform="translate(112,193)"/>
<path d="M0 0 C6.27 0 12.54 0 19 0 C19 0.33 19 0.66 19 1 C17.87980469 1.06058594 16.75960937 1.12117188 15.60546875 1.18359375 C14.13280016 1.26801424 12.66014456 1.35266149 11.1875 1.4375 C10.44951172 1.47681641 9.71152344 1.51613281 8.95117188 1.55664062 C5.76928658 1.74381035 3.03837622 1.98720793 0 3 C0 2.01 0 1.02 0 0 Z " fill="#231402" transform="translate(232,65)"/>
<path d="M0 0 C0.99 0 1.98 0 3 0 C3 0.99 3 1.98 3 3 C2.34 3 1.68 3 1 3 C1 4.32 1 5.64 1 7 C0.01 7 -0.98 7 -2 7 C-2.125 4.625 -2.125 4.625 -2 2 C-1.34 1.34 -0.68 0.68 0 0 Z " fill="#EF810F" transform="translate(269,275)"/>
<path d="M0 0 C0.68707555 2.49064888 1 4.37886292 1 7 C-0.98 7.66 -2.96 8.32 -5 9 C-3.125 4.25 -3.125 4.25 -2 2 C-1.34 2 -0.68 2 0 2 C0 1.34 0 0.68 0 0 Z " fill="#C9690D" transform="translate(415,19)"/>
<path d="M0 0 C0.33 0 0.66 0 1 0 C1 2.97 1 5.94 1 9 C0.34 9 -0.32 9 -1 9 C-1 9.99 -1 10.98 -1 12 C-1.66 12 -2.32 12 -3 12 C-2.25749403 7.91621717 -1.17076699 3.98060777 0 0 Z " fill="#EC8110" transform="translate(301,217)"/>
<path d="M0 0 C0.99 0.33 1.98 0.66 3 1 C3 2.32 3 3.64 3 5 C1.35 5.66 -0.3 6.32 -2 7 C-1.125 2.25 -1.125 2.25 0 0 Z " fill="#EB8010" transform="translate(162,125)"/>
<path d="M0 0 C0.66 0 1.32 0 2 0 C1.41196203 3.02419525 0.77321882 6.01758453 0 9 C-0.66 9 -1.32 9 -2 9 C-2.25 3.375 -2.25 3.375 0 0 Z " fill="#ED810E" transform="translate(252,304)"/>
<path d="M0 0 C0.99 0.33 1.98 0.66 3 1 C3 2.32 3 3.64 3 5 C1.35 5.33 -0.3 5.66 -2 6 C-1.34 4.02 -0.68 2.04 0 0 Z " fill="#CD6C0F" transform="translate(229,147)"/>
<path d="M0 0 C0.33 0 0.66 0 1 0 C1 1.65 1 3.3 1 5 C-0.65 5.66 -2.3 6.32 -4 7 C-2.92598892 4.08482708 -2.22189824 2.22189824 0 0 Z " fill="#EE810F" transform="translate(59,57)"/>
<path d="M0 0 C0.66 0 1.32 0 2 0 C3.25664978 2.90600261 4 4.79604584 4 8 C3.34 8 2.68 8 2 8 C2 6.68 2 5.36 2 4 C1.34 4 0.68 4 0 4 C0 2.68 0 1.36 0 0 Z " fill="#A95E11" transform="translate(178,307)"/>
<path d="M0 0 C1 3 1 3 1 7 C-0.32 6.67 -1.64 6.34 -3 6 C-2.01 4.02 -1.02 2.04 0 0 Z " fill="#BB630C" transform="translate(325,175)"/>
<path d="M0 0 C0.66 0.99 1.32 1.98 2 3 C1.01 4.485 1.01 4.485 0 6 C-0.66 6 -1.32 6 -2 6 C-2 6.99 -2 7.98 -2 9 C-2.66 9 -3.32 9 -4 9 C-3.67 7.68 -3.34 6.36 -3 5 C-2.34 5 -1.68 5 -1 5 C-0.67 3.35 -0.34 1.7 0 0 Z " fill="#B9600C" transform="translate(377,84)"/>
</svg>
